/* XPM */
static char *result[] = {
/* columns rows colors chars-per-pixel */
"64 64 242 2 ",
"   c #151616",
".  c #2B261E",
"X  c #1B1E22",
"o  c #291C2C",
"O  c #1D242A",
"+  c #1F2A35",
"@  c #252623",
"#  c #2B2B26",
"$  c #252A2C",
"%  c #2B2D2C",
"&  c #332C26",
"*  c #2C322C",
"=  c #393126",
"-  c #33332D",
";  c #39362A",
":  c #3D352B",
">  c #242C33",
",  c #2A2E33",
"<  c #252C39",
"1  c #39283A",
"2  c #2C3234",
"3  c #29353B",
"4  c #2B343B",
"5  c #333533",
"6  c #3B3532",
"7  c #3C3A35",
"8  c #343838",
"9  c #343A3C",
"0  c #3B3C3B",
"q  c #40372B",
"w  c #443A2E",
"e  c #483D2F",
"r  c #402F35",
"t  c #453D32",
"y  c #493E31",
"u  c #463839",
"i  c #433D3C",
"p  c #33422D",
"a  c #3D413C",
"s  c #3C4838",
"d  c #4B4134",
"f  c #44433C",
"g  c #484539",
"h  c #4B443B",
"j  c #51483C",
"k  c #371A48",
"l  c #3D0E5A",
"z  c #3B1A56",
"x  c #392648",
"c  c #2B3744",
"v  c #2D3A44",
"b  c #333D43",
"n  c #3A3E42",
"m  c #383A46",
"M  c #343E4A",
"N  c #3D2454",
"B  c #3E2857",
"V  c #3F1361",
"C  c #3D2063",
"Z  c #43175C",
"A  c #442B49",
"S  c #473947",
"D  c #462858",
"F  c #512C5F",
"G  c #493557",
"H  c #4C335C",
"J  c #543759",
"K  c #450C65",
"L  c #4B0E6B",
"P  c #441564",
"I  c #471866",
"U  c #4B1B65",
"Y  c #4B136C",
"T  c #4D1B6B",
"R  c #52156D",
"E  c #521C6C",
"W  c #4D0C73",
"Q  c #4E0D79",
"!  c #530C76",
"~  c #540D7C",
"^  c #4D1473",
"/  c #4E1A74",
"(  c #531474",
")  c #541B73",
"_  c #55137B",
"`  c #5A147E",
"'  c #591C79",
"]  c #4A2566",
"[  c #54236C",
"{  c #56296C",
"}  c #4C3464",
"|  c #573866",
" . c #4E2271",
".. c #5A2375",
"X. c #5B2B73",
"o. c #592678",
"O. c #5D3676",
"+. c #613E6B",
"@. c #622C7B",
"#. c #633678",
"$. c #3B4344",
"%. c #35424B",
"&. c #394548",
"*. c #3B444A",
"=. c #3A4652",
"-. c #384757",
";. c #3C4953",
":. c #434543",
">. c #474845",
",. c #4C4B44",
"<. c #41464B",
"1. c #444A4C",
"2. c #4C4D4A",
"3. c #534D44",
"4. c #544749",
"5. c #4C534B",
"6. c #54534C",
"7. c #5A5549",
"8. c #5B554B",
"9. c #434C53",
"0. c #494855",
"q. c #554858",
"w. c #4C5252",
"e. c #47535B",
"r. c #545553",
"t. c #575656",
"y. c #555954",
"u. c #5C5C54",
"i. c #545A5B",
"p. c #5B5D5A",
"a. c #625B4D",
"s. c #695455",
"d. c #635D55",
"f. c #5C625A",
"g. c #6E614C",
"h. c #64625A",
"j. c #68655A",
"k. c #726B5D",
"l. c #5B4268",
"z. c #585D63",
"x. c #624669",
"c. c #6B5272",
"v. c #5C6365",
"b. c #676866",
"n. c #6B6B64",
"m. c #736D65",
"M. c #6D7169",
"N. c #73736B",
"B. c #787468",
"V. c #707075",
"C. c #767976",
"Z. c #7C7C74",
"A. c #82786D",
"S. c #827C75",
"D. c #7B827A",
"F. c #868579",
"G. c #560D82",
"H. c #5A0E85",
"J. c #5D0D8B",
"K. c #5A1683",
"L. c #5C1384",
"P. c #5D128B",
"I. c #5C0C93",
"U. c #5E1291",
"Y. c #600F8B",
"T. c #621A84",
"R. c #63148D",
"E. c #66198B",
"W. c #641B8B",
"Q. c #630E96",
"!. c #631394",
"~. c #681794",
"^. c #6B1C94",
"/. c #64159B",
"(. c #6A169A",
"). c #65199D",
"_. c #6C1B9B",
"`. c #711E9B",
"'. c #662885",
"]. c #6A3784",
"[. c #713D87",
"{. c #6C2295",
"}. c #73239C",
"|. c #752A9A",
" X c #6619A5",
".X c #661BA4",
"XX c #6B1CA3",
"oX c #6C1EAA",
"OX c #731DA4",
"+X c #741EAC",
"@X c #721EB1",
"#X c #6D21A6",
"$X c #6D22AC",
"%X c #7323A4",
"&X c #7827A5",
"*X c #7423AC",
"=X c #7A24AC",
"-X c #7C2AAC",
";X c #7C31AE",
":X c #6E25B1",
">X c #7523B2",
",X c #7B25B4",
"<X c #7827B6",
"1X c #7D2BB4",
"2X c #7D29BA",
"3X c #7E36B6",
"4X c #785087",
"5X c #812DAD",
"6X c #822CB4",
"7X c #842DBA",
"8X c #882DB9",
"9X c #8333B4",
"0X c #833AB5",
"qX c #8B34BC",
"wX c #823CBA",
"eX c #8938BA",
"rX c #913CBF",
"tX c #85658C",
"yX c #894AB5",
"uX c #8646B8",
"iX c #9346BE",
"pX c #8B39C2",
"aX c #933BC3",
"sX c #953CC7",
"dX c #9343C3",
"fX c #9B43CC",
"gX c #994BC8",
"hX c #984ACD",
"jX c #9953C8",
"kX c #A249D4",
"lX c #A457D2",
"zX c #A666CF",
"xX c #A852E0",
"cX c #7D8281",
"vX c #888983",
"bX c #8F8E85",
"nX c #969487",
"mX c #999A95",
"MX c #A29992",
"NX c #9EA39F",
"BX c #A6A69C",
"VX c #AFB2AA",
/* pixels */
"X > 3 M m M n nX2.9 > 4 2 8.&.%.c 3 3 3 f.j.:.w.a %.v *.3.b 2.n.j.h.O < > 2 < > > F.a i.<.vXt.1.M.@ f X ,.M # B.0 b &.1.<.> y.7 ",
"* + O &.% 6 2 A.mX$ * 2 - 4 > %.< %.-.%.NX&.8 y.g ;.2.d t t >.B.j.s : w t %., > g i g 1.w.i.w.v.w.>.b.B.$.a vXB.f <.b v a %.B.Z.",
"> @ % @ v b 3.S.k.2 $.7 p 3 &.;.w.3 -.s 7.b.5.a -.w.f >.f 3.,.0.5.w g k.t F.k.d., 5 B.0 S w.8 F.F.nXd.vX:.3.0 f 7 0 8.t j.F.v F.",
"bXa.8.t.&.v F.nXZ.k.D.y.v.3 &.9.i.;.M.bXa.* %.&.&.1.v C.b.3.q :.f.7 w 0 7 r.y.,.9 , 8.S.h.6.u.f.8.h F.b., 4 $ b c 3 M > F.5 v bX",
"Z.F.,.g % 8.vXa.k.0 1.*.1.u.N.w.VXD.w.> N.f.nXF.j %.b.Z.N.,.i % &.g q u 2.7 1.6 v.9.N.y.9 s %.> 2 5 y.> %.3 v %.*.*.v e.mXN.7.m.",
"p @ 0 # y.n.0 >.8.$ %.a.e.a >.n 2 <.v Z.b.p.c v.b.f.F.d.y w 8.V.tX4Xd q & 9 5 0 d.n.d.2 4 # 9 g f 6 v.mX  $.c 3 b 3 v 5 4.m.9 n ",
"9 $ 9.$.6.A.7.j.8 <.9.a >.u.j.;.$.e.w.1.h.>.v 5.y t : 8.q.} } D 0.l.J A w.d w w : vXC.2.p.,.5.s p &.; * 2.F.N.p.h.F.S.F.d.- 2.2 ",
"*.f M 6 bXn.g S.2 $ 2 8.M.F.n.s =.y.w.h.f d t t f s.c.| N N N z D N +.D D H F i t y y : 0 5 $ @ d y.&.v.C.f.k.y.Z.f.7 d.$ 7 f ,.",
"=.2.a ; mX2.- 5.j.d O n.v.f 8 v c %.8.3.y w S D | | F D N z P V I ] [ D D | J D D D m.y d t.8 5.V.2.N.f.6.5 0 8 % k.mXh.X b d c ",
"1.,.Z.v >.;.;.;.5 D.D.vXO D.%.9.2 :.y y S c.x.#.D | D { P l V I I Z Z Z Z T D H A k A 6.y y u 8 0 b *.8.0 + $.*.% # vXvX3.@ % , ",
"0 bXc v 5.*.$.*.;.9.@ b.$ y.v n e e j m.x.J c.c.O.U Z P ] E Y ^ R K K P Z Z U U I k k | G u y y j a C.j.2 b %.6 $.# d.Z.M.&.h.3.",
"2.% 3 M $.9.;.%.9.;.b 5.M.j.y.y y S tXD N O.X.#.X.].'.....( ' '.` L L R K ( U U U Z E D k x 0.d t j 3.>.@ < < *.n # b.=.7 3.r.m.",
"9 M.c ;.%.e.=.$.&.=.2 h.f w w u u c.c.J ] X.X.].) o.' ' ' ~ ! ~ ` ` ! ! L L R Y R [ X.U N k D G i d w j k.% t.r.0 p.d.2.m &.n *.",
"M NX  z.*.=.%.*.e.%.u.1.d d u G N F O.X. .E Y o.' W ` ! _ {.W.|.E.{.` ` ` ! ' ) @...E Z P U | } x.p.h y 7.M.v.mXu.p.7 $.f 1.z.=.",
"c M.n.M v *.=.;.e.6.S y q >.c.| Z D { ].#.Y '.^ _ ~ L.L.E.}.H.H.}.`.}.E.T.E.W.` T.' ) K T l { { } G J y e 7.n.F.b.bXF.c =.%.=.M ",
"v t.F.= ;.=.9.f f b.,.w 6 B | | [ ] I ..) K.T.L.P.^.P.U.}.J.J.!.~.`.^.E.^.E.H.G.` ! ) R /  .#.O.P N D A d 7.m.N.y.1.f.h.e.c -.%.",
"c b.NXf.f e.:.S.S.N.y q S B O.[ X. .) ' K.K.G.G.~.!.!.`.Y.Q.!.XX(.5X-X}.^.U.P.P.L.T._ _ ' ) o.I T ] } G 6 y f %.9 b f.p.M =.;.e.",
"c $ 9.vXZ.vXBXj., 3.t ,.} | ] { Y ( _ ~ L.|.^.E.Y.^._.Q.(._.).XX%X=XdX_..XU.U.P.G.G.K.! Q W K Y o.X.] } J d g 9 c -.2 D.=.v c -.",
"Z.0 # N.r.r.p.8.,.y 0 M A O.#.].].W L.W.^.P.!.^.}.5X5XXX#XXX(.(.#X).;X%X:X#X#XP.J.H.H.P.Q ` W Y  . . .} A 3.y 7 c =.>.MXw.=.%.2 ",
"D.& f.*.* 5 f.1.7.t 0 B D #.X.o.T.K.}.E.P.J.Q.Q.(.qXXXXX X*X/.XX#XeXdX/.:X:X<X.XU.U.P.L.L.L.K./ V '. .z l.x.j 3.7 N.vX2 f.M.&.N.",
"B.n =.c y.a.z.f y 0 H } ] X.o.o.E.E.~.~.J.Q./.XX2X1XXX#X#X$X(.>XqXrXlXeX:X:X:X.X.X_.R.R.W.G.E._ / '.X.X.} c.b.3.h y.<.$.%.5 9.bX",
"w.0.h v %.v.w.j q 0.D ] ] I / _ P.R.^.~.Q. XOX1XXX9X)..X*XoX,X+X2X=XrXeX&X:XoX%XdX9X%X.XJ.~.G.~ Q ].[ #.Z k x 3.q 0 2.<.>.;.M.nX",
"5 < 3 c v @ h.y % G D ] T P ) K.P.E.`.&X X%XoX<X&X9X/.+X*X8XsX6XpX+X6X+X6XaX).).XX;X&X;X}.R.J.~ _ )  .@.Z Z G 0.d h :.n <.w.=.a ",
"6.$.C.r.B.C.d = S D B P T ^ ` L.^.^.&XOX9XxX-X,X1X1X+X@X7XpX@X@X+X,X6X,X,XqX*XXX#X#XdX9X!.J.J.G.G.W Y [ Z k A A S w 2.<.=.w.z.VX",
"a 2 1.vXb.8.d 5 G k U I Y / G.^.^._.(.Q. X9X(.+X@X+X8XsXkX,X@X2X+X6X,X2X2XxX+X,X@X XeX3X/./.Y.H.T.~ R Y [ Z } G s.f 4.p.w.- NXcX",
"2 > <.i g 0 w >.G H l P ( ! L.E.^.Q.(. XXXqXXX XoX@XsXkX6X<X,X=X@X@X@X,X2XsX@X2X<X XdXeX;X/.Y.J.^.` ( Y X.[ Z D S 3.h B.F.BX<.0.",
"7.f $.0 $.f w n A D { E R T.E.Y.Q.Q.OXXX_.sXqX@X@X@X+XpXqX,XdX3X=X<X3X,XsX6X+XpX2X+XqX=XrXgX&XR.~ G.W L o.Z Z N 1 g w ,.p.>.;., ",
"<.;.f 5 4 t : A N #.[ E ) ~ R.J.I.Q.+XrX=X6XaXkX+X6X@X+XdXjX:XwXeX3X-X;XaX@X2X@X<XqX9X9X/._.;XR.Y.~ W L ) P P z B >.w 5 A.*.n g.",
"2 $.9.b.3.y 5 o k l Z .._ Y.Y.Y.OXqXeX_. XXX+X7XaXpXaXhXlXgXjXgXlXjXyXjXgXqX,XqXkXaXpX5X_.~.#X}.G.~ ! W @...Z Z k S d w u.p.F.m.",
"$ 4 t.:.y w a.J | X.Z ( _ E.R.~.(.fX6X). XoX,XsX6X6XeX9XwX3XjXjX3X;XuX3X0XgXsX8X+X>X+X XXX/.-X#X~.~ ~ W R E Z D k , 7 ; 6 f.j.F.",
">.p.X 7 u w y.G { O.Z ' E.E.~.(.Q.6XOXXX*X6X=XsX@X7X7X3X3XuXlXlXuX0X3X3X3X9X2XaXqX*X>X*X)./.;X!.P.H.~ ( @.@.@.{ l.u j d b.k.i 5 ",
">.m., 0 y : x B ] #.K ) T.~.(.OXOXaXQ.=X+XqX+XkX@XpX2XpX3X3XzXyXyXyXdX3X3XuX2XsX8X+X,X>X).eX).!.&X{.E._ @.E @.#.k J S w :.6.# &.",
"j.h.O t e = x N z [.R L.J.}.(.(.qX).%X(.=X2X+XsX2X2XuXuXyX3XjXyXyX3XyX3XuX3XuXkX8X,X+X>X(.-X%X.X).P.G.Q ' ..T  .] B u y q 0 2.b.",
"b.s O g w = x k U U U ` T.^.(.+X,X=X9XqX>X,XfXsX1X7X2X3X3X3XzXzXyXyXuXyX3XwX>XsXkX,X,X*X_. X).#XU.U.K.G.'.I I { ] H S y w n w.B.",
"5.w f.8.y : a.x.D Z @.R ~ R.Y.=XiXgX9XdX=X8X,X6X1X6XuXwXjXzXuXzX3XyX3XuXwXwX8XfXrX+X2X-XXX.X*X:X%XG.P.^ ) o.T ] } <.i y w p.6.e.",
"i.9 2.0 y q & A D Z X.'.T.R.^._.5X=XdX9X X#X+X<X<X>X<X3XjX3X3XzXzXjXyXyXuX<XfXkXfXaXsX,X6X.X#X*X$XU.U.'.) V T ] H S y w u.u.f 9.",
"9 a - f h w : A | ] #.o.^ H.H.J.Q.OX-X.X$XoX<X2X6X2X,XpXlXjXiXjXjXlXiXeX;XqXfXqXaX6X6X*X&X;XeX%X;X{.K.L o.o.4X4XG S y y h.u.f $ ",
"MXvXy.$ t y q 7 l.x.X.Y ^ ~ H.R.(._.7XhXI.$X<X<X2X@X<X>X8XfX0XeX0X;XeX+XpXaX6X6XqX*X,X6X<X%X%X^.L.K.~ o...X.C l.S y y 7.n.j.h.F.",
"r.b.h.= w.h w = 1 4X].[ ..` P.P.!.(.XX_.&XdXqXpXaXsXsXfXqX+X8X6X0X*X7X6X8XsX8XaX=X2X*X%X&X;X;X!.P.G._ Y { [ D l.S d t p.i.z.i.:.",
"9.$.N.r.0 h w : x N | { Y Y ~ G.R.`.$XqXrX9XqX6XsXqX,XaX+X6X6X8X6X6X@X6XkXaX6XsX>X(.XX-X9XiX-XJ.K.K.) .. .I ] 0.j d y 6.$.M %.n ",
"=.5.6.>.>.8.h w . D c.@...) ~ L._.~.=X6X-X_.+XOX=XaXkXpX+X2X6X@X2X7X2X=XkX8X,X7XqX}./.eX3X_.P.H.~ ~ ) @.].U H u e e 3.$.n 2 v 3 ",
"n 7 @ 2 , 0.y w = 1 A { O.Y / _ J.P.(.=X%X X$X#X XOXfXfX6X+X+X@X7X6XsX,X6X<X>XoXXXdXrXaXU.9XP.L.W ^ T #.X.c.x.J e e i b.5 O M %.",
"h % u 7 & 7 f y q & 1 x.[ P K K.E.P.}.}. X#X*XXX#X).qXsXpX6XpX7X6XfX2X2X6X<XoX:X.X$X!.9X!.~.G._ Q / ..#.+.J 4.y e q $ 9 6 f v M ",
"S.d w d : 0 >.y w q . A z P / ..` E.E././..X.X#X#X(.eX$X+X6X7XaX7X+X>X@XoX#X$X$X$X#X#X%X^.{.P.K.) @.[.F B J y y e k.N.d j f t bX",
"d.e : <.t : - t y w = A D z T ) ( T.P.{.&X(.6X=XXX1X9X,X$X*XoX>X>XqX X$X.X>X#X$X.X.X).&XP.T.` L I #.#.| G 4.y w d 6.d d a.:.w 0 ",
"N.7.: t 1.d & 7 7.d w = x D | [ ' ' T.^.}.&X&XsX;X1X`.#X%X#X1X:X$XkXJ.<X#X#X>X:X.X.X%XP.R.K.( Y P [ | J u d y h g 6 y 6 0 7.d VX",
"S.B.j.u.y.y.d = k.d w q . k } [ E T ` _ E.E._.&X-XrXdX.X$X$X:X$X.XwX9X#X#X$X.X).U.^.P.Q K.( ..E I ] | x.d d w 7 0 e i g 8.k.7 2 ",
"m b.j.2.N.8.d ; a.y d w : S x.| P K Y ( ' {.E.^.~.~.*X-X<X#X$X:X$X:XdX(.#X.X.XR.P.K.` W L L / [ U D G S d w d 7 ,.e <.-.Z.9 4 %.",
"n N.vXC.i.M f w :.g.d y w t q.z C I  .I Y ( ( G.H.J.~._..X.X$X>X.X9XrX%X^.R.Y.{.T.T.L K P P [ [ | l.M d y w - , 4.y n h.> 4 4 ;.",
"a 2.BX>.M e.:.w 4 v j d e = > D | { ] P T T ^ L Q G.~ {.P.J.!..X/.P.!.}.^.{.|.` W R ) E E [ D | 4Xq.t w e w 8.a.f y 6.5 4 1.* 8 ",
"%.5 f.>.-.e.h q * 2 g y y w - 1 1 S } ] Z [ R Y W ^ ( '.K.G.G.H.^.H.~ R.` _ ) ( R @.U U Z #.| J 4.& 7 y w q 0 p.a.w u.%.b 8 # @ ",
"%.N.F.# -.-.j w = %.i y y w q q q : 1 k | O.X.@.P ' '.L ' K.~ T.W.! ` R L L ) Y 4XI Z z D l.u u u w w y t q 8 % t w : 4 4 0 . 4 ",
"n.S.VXk.-.%.f 7 : : = e e t w w w w q r A +.O.x.{ o.T I Y Y / '.o.Y Y L ) [  .U Y D ] H u u y y y y y y e q : t y : 5 s 0 n $ *.",
"M g D.B.w.e.a d w : = y w w w w e e w w : 1 k | D D U I I I o.].( T U P P ..U | D } D 6 w y y y y y y y e q w w w j $ 2 <.c >.- ",
"w.3 5 9 6.D.8 7 t t q w w w $.7 >.7.y y y : 6 A D | ] D ] ] I U Z l V z z k +.} k r u e d y d w.2.6.a.y e w w w f d.@ v v d.B.n ",
"5 a :.&.a M.a 4 y e e t t t 0 2 6.4 *.7.y y w w 6 r A N D H } 4XD D O.H x.x.r 6 u e e e d %.i.p.V.M.Z.y y w w q ,.y.0 4 6.j.2 2 ",
"6 s v %.:.VX- %.b g d e e q = $.M.-.2.j f.>.w.w q q w t 6 & l.c.A z 6 u u u y y e e :.9.*.;.1.Z.m.d.d d d w w 7 3 & a.S.mX7 < -.",
"< c c 7 &.F.4 *.M b j e w q . # nXj.h.g D.n.,.5.>.,.t e w w & n , & w e y y w ,.u.d.& M z.>.h.b.k.w d d d y 7 @ > 3 B.nX4.M $.; ",
". + &.f M.&.8 1.;.2 j d w q = = & %.6 0 D.a $.&.5 <.f 2.8.g q = 7.t u 0 0 =.5 b 9.y.j.d.w.m.N.f 7 d d d d w 7.4 c + $ f.8.3 7.%.",
"b * $ 8 f.p $.%.M h.j d w q = = & & < v m.3 9 c >.r.w.8 y : d 7.1.y w ; : 0 *.%.=.Z.8.p.r.s d.- e d d d w w 7.MX, a > $ d.bX  -.",
"mXC.f.S.m.7.9 u.nXB.j d e q q = & : @ %.nXM.4 %.2 r.8.2.j d j.A.2 $.t t w.C.2 @ $ * h n.>.z.>.7 d d d e e w = 7 m.u.B.F.vXn.D.a.",
"% X 4 2 a A.D.8.* 4 d d e q q : w 5 9 -.5.a.- 1.# > n 6 p u.f.F.$ c t.f 5 *.k.7.j.b.* w.>.z.p.3.d d e e w q = 7.f <.5.0 $.3 S.B.",
"@ - ; 3 8 7 9 M.f.O d d d 7 q q ; s $.5.bXF.N.f.h.f i.$ 4XD.0 5 >.p.X 0 9 9 p.<.t.b.$ z.F.t.p.t.- e d e w : ; V.%.1.b b 8 $.nXb.",
"9 6.;.* 3 $.$.Z.7.O $ 2 $ B.2 . h.D.j.>.F.u.h.k.@ y.9 3 :.5.# *.>.m.$ < v , 4 M 9.N.X i.b.v.z.z.n Z.  3.i u.2 BXv $.0 &.%.3 vXf "
};
