/* XPM */
static char *result[] = {
/* columns rows colors chars-per-pixel */
"64 64 211 2 ",
"   c #0B0B0F",
".  c #18170B",
"X  c #121816",
"o  c #1B1C1E",
"O  c #231F1C",
"+  c #23221D",
"@  c #1B1D22",
"#  c #1D2226",
"$  c #1D252B",
"%  c #1F282D",
"&  c #1E2632",
"*  c #1F2A35",
"=  c #232524",
"-  c #2A2422",
";  c #272924",
":  c #2C2B25",
">  c #22262B",
",  c #242A2D",
"<  c #2B2C2B",
"1  c #332D28",
"2  c #233521",
"3  c #2D312D",
"4  c #363426",
"5  c #33332D",
"6  c #3A352D",
"7  c #3B3A2E",
"8  c #242C33",
"9  c #2A2E33",
"0  c #252D39",
"q  c #263135",
"w  c #2C3234",
"e  c #26323B",
"r  c #2B343B",
"t  c #2E3A3D",
"y  c #343533",
"u  c #393633",
"i  c #343935",
"p  c #3C3B34",
"a  c #31373B",
"s  c #333A3C",
"d  c #3A3D3B",
"f  c #473A2F",
"g  c #473F33",
"h  c #423E3B",
"j  c #33422D",
"k  c #3B4638",
"l  c #3D413D",
"z  c #444135",
"x  c #494437",
"c  c #43433C",
"v  c #4A453C",
"b  c #4B493E",
"n  c #50463B",
"m  c #435B3C",
"M  c #263442",
"N  c #2B3642",
"B  c #2D3944",
"V  c #2C3548",
"C  c #2E3D4A",
"Z  c #323640",
"A  c #333C43",
"S  c #393E42",
"D  c #333E4B",
"F  c #3A3F4A",
"G  c #364143",
"H  c #3B4344",
"J  c #3C4A47",
"K  c #35424C",
"L  c #3B444A",
"P  c #3E494D",
"I  c #2C4153",
"U  c #354453",
"Y  c #3A4652",
"T  c #3B4A54",
"R  c #35465A",
"E  c #3B4C5B",
"W  c #3F515D",
"Q  c #434543",
"!  c #4B4542",
"~  c #444A45",
"^  c #4B4C44",
"/  c #42464A",
"(  c #484749",
")  c #434A4C",
"_  c #4C4D4B",
"`  c #524740",
"'  c #524D44",
"]  c #524E4B",
"[  c #4E5447",
"{  c #455843",
"}  c #4D514D",
"|  c #555247",
" . c #5B5446",
".. c #54534D",
"X. c #5A554D",
"o. c #54584D",
"O. c #5A594D",
"+. c #434752",
"@. c #444C53",
"#. c #4B4D51",
"$. c #424E5A",
"%. c #465153",
"&. c #4C5253",
"*. c #4F5856",
"=. c #42515C",
"-. c #4B545B",
";. c #4D595C",
":. c #545553",
">. c #595552",
",. c #555A54",
"<. c #5C5C54",
"1. c #52565A",
"2. c #5B5759",
"3. c #545B5B",
"4. c #5B5D5A",
"5. c #615A4B",
"6. c #635B4E",
"7. c #625751",
"8. c #635D54",
"9. c #635E5A",
"0. c #5D6255",
"q. c #55605F",
"w. c #5D625C",
"e. c #6E614C",
"r. c #636256",
"t. c #6C6152",
"y. c #64635B",
"u. c #6A645C",
"i. c #65695D",
"p. c #6B6A5D",
"a. c #796452",
"s. c #736C5D",
"d. c #404F62",
"f. c #465563",
"g. c #4D5B63",
"h. c #535C62",
"j. c #5A5E62",
"k. c #4D5A70",
"l. c #576264",
"z. c #5D6363",
"x. c #5B6269",
"c. c #586A74",
"v. c #636563",
"b. c #6B6662",
"n. c #646964",
"m. c #6B6C64",
"M. c #62656A",
"N. c #656B6B",
"B. c #6B6D6A",
"V. c #726D63",
"C. c #7B6F65",
"Z. c #726F6B",
"A. c #6C7064",
"S. c #63706C",
"D. c #6E726B",
"F. c #737265",
"G. c #7C7464",
"H. c #73736C",
"J. c #79746A",
"K. c #74786D",
"L. c #7B7A6D",
"P. c #626A72",
"I. c #657276",
"U. c #6C7373",
"Y. c #737673",
"T. c #7A7772",
"R. c #747A74",
"E. c #7C7B73",
"W. c #737679",
"Q. c #7C7C79",
"!. c #81766A",
"~. c #817A6F",
"^. c #817D74",
"/. c #887D77",
"(. c #768075",
"). c #7C8174",
"_. c #7C837B",
"`. c #828174",
"'. c #8C8271",
"]. c #848976",
"[. c #84847C",
"{. c #89857B",
"}. c #8B897C",
"|. c #747B80",
" X c #7D8281",
".X c #838582",
"XX c #8A8781",
"oX c #858983",
"OX c #8B8B83",
"+X c #818888",
"@X c #8C8C8A",
"#X c #928D83",
"$X c #8F9186",
"%X c #8B928A",
"&X c #949385",
"*X c #9A9887",
"=X c #93938B",
"-X c #9A958B",
";X c #949690",
":X c #9C9C95",
">X c #9B9C9B",
",X c #A0998E",
"<X c #A39A94",
"1X c #9EA19A",
"2X c #A2A29B",
"3X c #ABAB9F",
"4X c #9EA6A9",
"5X c #A9ADA6",
"6X c #B1AEA5",
"7X c #AAB3AE",
"8X c #B5B6AE",
/* pixels */
"@ > e K F D s ;X' t 9 w q O.J B N e e M 0.m.~ %.s F B P ^ A ^ m.y.y.$ 0 8 r 0 0 0 [.c 1.)  X3.) B.= v @ ( S ; H.l Z H ) Q q ,.u ",
"3 * $ / < d 9 !.;X< w w 5 t q G e K E G :XJ s ,.` ) @.d ! L &.G.n.k > m > K 9 8 c h z ( *.w._ x...~ b.H.H l OXJ.c / G A G K L.L.",
"0 = < = Z Z ^ ^.s.w H d t r K @.} q T c  .n.} i T &.L %.Q B...-.[ f w.E.a OXu.r.3 y J.d Q :.w .X`.-Xy.[.! _ d Q p c >.p p.}.B [.",
"&X6.o.,.J C /.*XL.F.).,.w.N K @.;.%.N.%X8.5 K J J ~ V |.m.0.d ) q.i } d l ..>.' a 9 >.~.y.] >.r.O.b {.n.9 w , A N e A 8 `.y B #X",
"E.].^ z < O.OX5.s.d P J ) <.J.&.7X).&.q J.w.=X{.! L M.^.H.<.! , A S 6 c } p ( u z.+.H.<.i c Z < w y o.0 K e A K J L N -.;XZ. .Z.",
"7 = h < ,.m.d / O., F 8.%.c ~ A r ) V L.n.<.M z.n.4.].E.K.9.y.`.<X.X:., s A y p 0.b.9.q r 3 Z b z u z.>X  A t M D e B y ( C.d S ",
"t > +.H ..!. .s.y / +.l ^ <.p.J A &.#.) w.~ t q.>.s m.D.-.h.3.( >.u.9.4 #...b . 4 OXQ.( 9._ :.s j J 5 < } {.L.2.r.`.^.}.8.y _ 9 ",
"L c G p #Xb.c `.w , w O.F.[.m.l T ,.&.y.~ G @.[ _ i.#X9.H D K F +.L Z.>.S } >.x Z a 4.o.p w , 2 z 0.L v.(.<.V.o.T.0.p 8., p c ^ ",
"T } l 4 :X_ 5 #.y.g * A.z.c i V e L y.J.E.h ~ ) h.z.2.H H 0 B 0 T } >.! ) u.y.} ( x E.b.3.1.u { U._ H.w.] y Z u 1 b.<Xy.o S g N ",
") ^ Q.s ! T T T a ).(. X=  XK @.e L _ U.<.E.V.K.) 0.~ v.i $ C K G p + w 9 +.Q :.Q w g :.P.t K a d A L X.d 0 S J w < OX.X] = 3 0 ",
"d }.t V } K L L +.@.+ B., :.V G D h.b.V.m.} {.E.F.p > A %.^ C U n = y K < d ( } S r w y._ w r v.V.h K.y.w G H u S : y.E.B.J 8.] ",
"_ 1 e D H $.P F @.T A } A.A.w.3.X.{.-Xc a B.N.B.n.#X[.u.p.) i.OX/.1 , ^ , Y ~ c J 9 3.! 0 s @.j.@.N.X.^ > 0 0 L S - m.T u ' >.m.",
"Z m.e =.A =.T F L L w y.~ ` ..p g `.K.X.J n.y..X>.B.y.<.r.^ = l 9.l : / u , l y ^ <.v._ Z 8 L -.H x._ E.C.3 3._ d ,.u._ H J A Y ",
"K 4X. x.L Y K J -.U <.#.;.N.O.~ a ! 8.8.+.~ l m.O.9 %.y S ;Xn.8XH.=X/ g %...G...m.v.~ 9 N J y.3.y.A.K.L.&XY.x.>X<.4.i G c ~ 1.T ",
"M N.b.D A L T T @.:.Q @ -.| J._ u r &./.Y.a OXi F 6 L c X.XXu w ^.^.[.y.o.B.V.6.J.7.X.< / # ....o.~ <.~ Y.B.m./.b.=X[.N T K Y F ",
"C ,.}.1 T T ) H x v.#.= 9 B &.,.^ ( a :.J n.p.d #.v.$.E ^.N r L D b.b.} D.:.Y ! a.u X.r F :.K.m.a q A a 4.oXL.K.,.~ 8.9.-.B U U ",
"M m.2X4.c =.Q ^.E.Y.i = H Z 3.} b.&.*.>.-.4.w 0 g.+.L w.9 t r L d H.oXE.2.D C K J t.Z ) h.>.0.r A L @.) r 3.~ T a Z 0.3.D Y E -.",
"N < @.oXE.@X3Xp.9 ] y.2.*.,.c ..d S d 0 ^ 2XL.6.c 9.2.a r ) < a H ] 5X~ C d.=.K r A z.4 M 5 9 G P.1.L H } / / t N Y w ).Y C M E ",
"E.l < D.:.:.2...) ).l H u N.H.&X}.w c B.J.l Z 4.^.~.F.L G r - - D w 0.c E f.d.H r r r $.; O.A V =.c.g.Y p 4...A A L ~ 2X&.U B 5 ",
"`.: q.~ 3 y q.^ 6XL d N d J.,.<.u.o.=X9.i r Z 8 i L.y w t d - t K H.}.: R R f.Y 9 R K c <._ ;.~ < I.L a y.b.D.Q.s Y.XXw r.B.Q K.",
"Y.d K V ,.6.g.Q [ K @.-.E w.l.N.B.b.2.>.% N y s k.<.y H d G , L V.^.6Xm.E U E B V _ l ^ 3.y U.1.X.@XB.9._ J.W. Xn.i./ H G i @.%X",
"_ #.b C K w.&.m.) 3.@.T %.L %.) g.v.Z.:.9 C s h.p y.< q Q N ~ 6 S c ).L.} =.B ~ [.H.,.W y M.d a 9 5X0.E.8 < a n.~ / ( / ) T B.&X",
"y M e N V ; T.3.> *.^ =.T i 3.;.=.o.F.R.C ~ Y g...y.+ B V 8.L.d %.r 6 s .._.i a a y...w.&.o.L i ( y.3.^.u a -.-.) B.~ L +.#.+.d ",
"^ Q Y.>.J.E.c q @...~ L *.T l.j.Y.B.>Xn.y.6X>.] <.,.s t ..i.q w i i ~ H s F.k a Y %.}.R.q a d e ..t T p.< y ( b _ R.1./ L &.g.8X",
"l w ~ +Xv.y.,.r 3.H P =.U W %.E.Z.B.>.+ 8 p.9 S M 1 7.E.;Xh 0 R p k C K H 7X5 L G I K.S.w G ( H m.E ^ ` i.( g.n.E.4.:.j.} 1 1X X",
"w 9 / c x 0 / _ 4.u.4 D g.! w.b.L.( c 0 p H.h $ 8 e J.-X^ K d 7 e r V p L ].t H L M %XR.m.j A ~ ;Xr.r.v E.m.^ ,.~ ,.m.[.XX5XQ +.",
" .l H d A Y r Z +.>.y.y.^ F.J.h / N p s u XXF.r M * , 2.X.r  .L + 9 H c U.l t ) E w Y.:.[.<XH.>.a L a h _.H H J y #.l ..>.^ E 9 ",
") / c y t S L L / E.o.3.>.z 4.3 # e S E.^ 6.E.,Xw l < 9 r.$XX R s w $ 6 i.t d P G r.D.J.< S F.! c 7 0 a A.t B N ^ &.&.e ~.K F e.",
"r S @.v.2.R.y = ; 3 v B.) h.^ d Z.XXV.6 e q < ] V.<.J.].oXm.(.5.<XU.0.`.F. .s <.&XK.A.y.i 3 } } 0 y ; R =XD.t A w } X._ m.2.'.G.",
"9 a :.Q w J s...p.B.< &.^ j.<.>.h ;X9., r w N L.c / } l S t /.J.< # r w d ~.).O.3 B < w s i O.W A.a a U ' 7.6 P : 9 A i y w.2.*X",
"( 8.@ i a a j.J 1.n.< j.^.2.3.2.< 9.h i S d u Y.K ) S Z i F &XN.; y 7 M s 6 Z F.<.% w t w , w.< K l l } =X}.H.0.u.h ,.< _.A.d 5 ",
"( m.9 0 A 9 r F ) K.o 3.v.j.h.j.A Q.X ] h 8.9 2XB H S L G r XXc s ^ @.3 e H G Q...# < w < L.t + 0.E.p.~ [.o.u.s.+ ,.t B Q } , H ",
"y.y.# 0 8 w 0 q 8 [.c 3.@. X,./ B.= v @ ^ S - H.l Z J _ / q >.u @ > e U F D s ;X..t < t < O.H C t e e M r.p.~ %.s L N P ^ S _ n.",
"n.k $ m > F 9 8 c h v ( 1.4._ x...~ b.H.H l OXH.c L A B G D L.L.9 * $ Q < d r G.-X< w q 5 t q K e K R G :XH s ,.` / -.i ~ / &.G.",
"[ f w.E.B OXp.9.< y H.d l ,.t [.E.-Xy.XXv _ d Q j h >.p p.].B [.0 = : = N Z ^ ^.s.w H d i e L @.&.q E l  .n.} s R &.L %.Q B...&.",
"3.s } d d o.>.` a 9 >.~.y.] O.w.8.b }.v.9 w , G B N A 8 /.u V #X&X6.o.>.J C /.*XE.F.E.:.3.B K %.;.%.n.%X0.w K ~ J ~ V Q.m.0.d @.",
"A l 6 v _ p ) u z.@.H.:.i ! Z < 9 5 ..q F e A K L H N -.;XZ. .Z.E.].^ x < O.OX5.s.S ) J _ <.K...7X_.&.3 F.y.=X}.^ K v.^.H.<.! , ",
"<X[.>., d A y h r.p.9.w a : Z b z i z.>X  A N M D e B y ^ F.d S p = h ; :.V.d / X., D 8.%.l ! A w P B L.N.<.M z.n.0.{.R.K.9.y.`.",
"2.n.4.4 &.] b . 4 OXQ.( 2._ :.G j J y < ..].J.3.r.].E.OX8.6 _ w t > +.L ..G.X.u.y J ) l ^ <.u.P H -.@.) 0.~ a q.:.s m.D.-.h.1.( ",
"@.K F.:.S ..o.c V a <.>.p w , 2 z 0.L v.Q.<.V.>.T.0.u 9., p c ^ J c S p #Xp.b `.w , w O.F..Xm.d P ,.&.y./ G +.[ ] b.#Xy.H D K S ",
"T _ :.! ) u.y...( Q E.b.2.3.u { U._ K.j.| y A y 1 b.<Xy.o G z N T _ h 6 :X^ 6 &.y.x > F.z.c a B e L y.J.E.h ) ) l.z.>.H S 0 B e ",
"d p + 9 9 +.Q :.h w g :.P.t K a s A H X.h * H / w : @X_.] = 1 9 ) ^ Q.s v A N N w [.(..X=  XK @.e L _ D.>.E.V.K./ 0.Q n.p $ C K ",
"n , u F < d / _ S r 3 y.( w r v.F.l K.y.w S H y H - p.Q.B.J 8.] d }.A U [ L B U M K O m., o.B D K h.n.C.m...{.L.F.p $ Z %._ C U ",
"/.3 , ^ > U ^ x J w 3.b 0 s @.j.P B.X.^ > 0 0 H S - b.Y p ' ,.m.} 3 V r s U K C L B K } A.m.z.3.X.[.*Xc t B.M.B.v.#X[.p.p.) n.OX",
"9.l : / u & l y ^ <.M.( Z , / -.H v.^ E.C.5 :.&.s ,.u._ F J A K a V.0 D V T P U I B s y.Q n ..p x ^.L...J n.y..X<.B.y.>.r.^ = l ",
"Z.-X~ d &...J.o.B.u.~ 0 V J y.3.y.n.K.).%XY.x.>X<.0.u H c ! 3.T K 4X. -.s L E -.C K <.@.3.N.O.~ t ! 8.8.E ! l m.o.0 @.u S -Xn.8X",
"~.`.[.y...B.V.5.J.7.>.< ) $ o...../ 8.~ H.B.m.'.b.=X[.N T K U L M N.n.K H T A K i X.Q = -.] J._ y #.h.[.H.a OXi L 6 L v X.XXy q ",
"F m.p.} D.X.Y ! a.u | t G ..J.n.a e A a 4.oXE.Y.:.~ 0.y.-.V U U C :.}.4 T N I c h n._ # 9 B &.,.L J Y W J n.p.d &.v.$.E E.r t H ",
"S H.OXT.4.D D D J 8.A ( 3.,.4.r S L @.~ r 3.) P a Z w.3.K U W W N b.2X4.c Y d {.E.Y.y = l B 4._ b.M.U *.-.4.w 0 1.$.L w.9 t r L ",
"G _ 5X^ C W =.U r S z.5 M 5 9 S P.1.Y G } ) / B N Y w ).L C N E N < @.OX^.@X3Xp.w _ y.<.*.,.Q o.>X<.p q ^ 2XJ.8.c 9.2.w r ) 9 i ",
"K y <.h E f.d.l r t r $.= O.Z V $.c.h.Y f 4._ Z C L ( 2X&.L C 6 ).s : D.:.:.<.o._ ).l H u N.F.OX&X> Q B.H.c A 2.^.~.H.L A a - ; ",
"K D.}.< U R f.T , R F c <.} ;.~ , I.L a v.i.F.Q.d K.{.w 0.N.Q Y.`.: q./ < u q.) 6XF d N d T.,.0.y...%X8.i r Z 8 i L.y y r S - a ",
"m.^.6XA.E K E N V _ l ^ 3.y U.1.X.@XN.y._ J.W.+Xm.w./ H A y +.@XK.H K A <.6.g./ ^ L $.*.E w.l.N.m.n.4.>.> N 5 d k.,.w H d K , H ",
"F x ).J._ =.A ~ .XF.>.W w N.l a q 5X4.E.8 ; i z.~ / ( J ) T B.&X_ ) b C K h.} m.@.3.@.U _ H %.%.h.v.B.>.9 C s 3.p y.< w Q N Q 7 ",
"%.r y s :._.i t a u.O.w.&.o.L i ^ y.4.^.u a 1.-.) B.( L @.#./ H w M e N B ; T.3.> *._ $.E i 3.;.-.:.F.W.C Q U f.| u.= A B 8.L.s ",
"i s ~ H s F.k y U %.}.R.q s d e ..t T p.< y ) ^ _ R.,.L / &.g.8X] h Y.>.J.R.! 3 @.../ J -.T h.j.U.A.>Xn.v.6X7.:.<.,.Z w X.i.w w ",
"7 l B L c 7X3 L G C K.S.r G ~ H B.E ^ ` p.) g.n.Q.4.:.w._ 1 1X.Xl w ~ +Xb.y.,.e 3.G P W U =.@.E.B.B.,.+ $ p.9 D N 1 6.^.:Xp 0 U ",
"e N N p P ].t H K M &XR.m.i A ~ *Xy.r.c E.m.^ ,.~ ,.m.[.oX5X( +.3 o ( h x 0 ) ) y.u.4 A g.~ y.b.^.! v 0 d H.c = * e F.-X( K S 7 ",
"+ 8 H c S.l a %.E i Y.:.[.1XH.>.a K a z _.A H J y #.d ..>.^ T <  .i H S A Y r Z +.>.u.y._ F.G.z / a p A u }.D.r t * % <.X.e  .L ",
"s q > y i.t d Y G w.A.J.< c F.c c 6 0 t F.t s N ( &.&.r ~.K F e.) ) c y t H L J J Q.o.2.>.l 4.3 # 0 S T.' 8.L.<X9 l 9 8 9.$XX R ",
"<XU.r.).F. .a <.&XK.A.r.y w ' &.q i > U =XD.B B w } X._ m.4.'.C.r G +.v.2.R.w = ; 3 v m.( 1.^ a Z./.V.y 9 9 < ^ F.<.J.[.oXV.(.5.",
"< @ e y h ^.Q.O.3 t 9 q s y <.=.A.y a U [ 7.6 / : 9 A u y q.3.*X< t <.Q w L s.X.b.m.3 &._ j.<.>.Q ;Xy.8 r 9 B E.x J } l H a '.J.",
"; 6 u e s 6 A F.<.> e t w ; y., U l l } =X{.F.0.n.x ,.<  Xm.u y ( 2.@ i a y 4./ 1.b., h.`.3.j.>.< r.h i F h y Y.D ) G Z r L &XM.",
"a ^ =.3 r H G E...# < w q L.r + 0.E.p.~ [.O.u.s.= o.B t Q } < J ( V., 0 D 0 r F ) H.@ j.v.j.h.v.Z E.X _ h 0.9 2XA S A L l r OXc "
};
