/* XPM */
static char *result[] = {
/* columns rows colors chars-per-pixel */
"64 64 239 2 ",
"   c #151714",
".  c #23211D",
"X  c #1B1E22",
"o  c #1D242A",
"O  c #1F2934",
"+  c #242624",
"@  c #272624",
"#  c #2B2B25",
"$  c #252A2D",
"%  c #2B2C2B",
"&  c #332D28",
"*  c #2C322B",
"=  c #33332D",
"-  c #39362C",
";  c #242C33",
":  c #2A2E32",
">  c #242D39",
",  c #2C3234",
"<  c #26323C",
"1  c #2B343B",
"2  c #2B383B",
"3  c #333533",
"4  c #343935",
"5  c #3C3B34",
"6  c #353738",
"7  c #343A3C",
"8  c #3A3D3B",
"9  c #473A2F",
"0  c #423E3B",
"q  c #33422D",
"w  c #3D413D",
"e  c #3B4839",
"r  c #43433C",
"t  c #49453A",
"y  c #47543C",
"u  c #273544",
"i  c #2B3642",
"p  c #2C3A43",
"a  c #2E3D4A",
"s  c #333D43",
"d  c #353A44",
"f  c #393E42",
"g  c #333E4A",
"h  c #2F3F50",
"j  c #2B444A",
"k  c #3A4244",
"l  c #34424B",
"z  c #3B444A",
"x  c #384849",
"c  c #2B4B57",
"v  c #2C4C54",
"b  c #354453",
"n  c #3A4652",
"m  c #3B4A53",
"M  c #374C58",
"N  c #2F5255",
"B  c #365557",
"V  c #34555C",
"C  c #3A555C",
"Z  c #3B5B5C",
"A  c #3D615D",
"S  c #2E5B67",
"D  c #345C63",
"F  c #385A64",
"G  c #2D616B",
"H  c #3C6264",
"J  c #34646A",
"K  c #37666A",
"L  c #3C636B",
"P  c #3C6C72",
"I  c #386976",
"U  c #3B747B",
"Y  c #434543",
"T  c #4A4646",
"R  c #444A45",
"E  c #4B4B44",
"W  c #41464B",
"Q  c #444B4C",
"!  c #4C4D4A",
"~  c #534E47",
"^  c #475249",
"/  c #4D514C",
"(  c #53534D",
")  c #59564B",
"_  c #434D53",
"`  c #454C55",
"'  c #445353",
"]  c #4B5252",
"[  c #43545C",
"{  c #495759",
"}  c #445C5C",
"|  c #4C5C5C",
" . c #545453",
".. c #575655",
"X. c #545A54",
"o. c #5C5C54",
"O. c #545B5C",
"+. c #5B5D5A",
"@. c #635B4D",
"#. c #635D55",
"$. c #4B625D",
"%. c #57625B",
"&. c #5B625C",
"*. c #64625A",
"=. c #68665B",
"-. c #716857",
";. c #435D62",
":. c #455865",
">. c #585D63",
",. c #4D5A70",
"<. c #446365",
"1. c #496567",
"2. c #446B6D",
"3. c #4C6B6C",
"4. c #586867",
"5. c #4D716C",
"6. c #57726D",
"7. c #446C73",
"8. c #476A74",
"9. c #566C72",
"0. c #4C7275",
"q. c #44747C",
"w. c #48767A",
"e. c #537474",
"r. c #597778",
"t. c #537B7B",
"y. c #646562",
"u. c #646967",
"i. c #6A6B64",
"p. c #6A6D6A",
"a. c #736D65",
"s. c #68726B",
"d. c #73736C",
"f. c #787669",
"g. c #677874",
"h. c #637C7B",
"j. c #747B74",
"k. c #757877",
"l. c #7B7B74",
"z. c #81786D",
"x. c #817C74",
"c. c #887D77",
"v. c #5D817D",
"b. c #69837D",
"n. c #79827A",
"m. c #80806B",
"M. c #84847C",
"N. c #888578",
"B. c #397A86",
"V. c #467C85",
"C. c #577D83",
"Z. c #747B80",
"A. c #3B828C",
"S. c #3A8A97",
"D. c #3D8A94",
"F. c #3D939D",
"G. c #39979E",
"H. c #3D99A6",
"J. c #3DA1AD",
"K. c #3EA9B7",
"L. c #3EB2BF",
"P. c #47858A",
"I. c #4C838A",
"U. c #538383",
"Y. c #5B8383",
"T. c #578789",
"R. c #5B8C8C",
"E. c #448A94",
"W. c #4B8C92",
"Q. c #558C93",
"!. c #499196",
"~. c #43929B",
"^. c #4B939B",
"/. c #58969A",
"(. c #658787",
"). c #778683",
"_. c #6E918E",
"`. c #679797",
"'. c #6A9B9C",
"]. c #769998",
"[. c #6DA09E",
"{. c #4598A4",
"}. c #4C9AA3",
"|. c #439CAA",
" X c #559BA3",
".X c #6C9EA2",
"XX c #44A2AC",
"oX c #4BA5A9",
"OX c #4CA3AC",
"+X c #58A3A7",
"@X c #53A3AC",
"#X c #43A6B3",
"$X c #47ABB7",
"%X c #53ABB3",
"&X c #59ABB3",
"*X c #47B2BC",
"=X c #58B4BB",
"-X c #68A7A9",
";X c #7AA6A6",
":X c #68AEB3",
">X c #66B6B9",
",X c #78B7B9",
"<X c #34BBC8",
"1X c #06BFF8",
"2X c #43B4C3",
"3X c #48B9C6",
"4X c #54BAC4",
"5X c #5BBDC5",
"6X c #64BCC2",
"7X c #35C3D2",
"8X c #1ED4E0",
"9X c #07C9F7",
"0X c #07D5F6",
"qX c #08DEF6",
"wX c #25D8E0",
"eX c #09E8F6",
"rX c #06E4F8",
"tX c #03ECFB",
"yX c #11E8F1",
"uX c #01F4FD",
"iX c #4DC2CD",
"pX c #57C3CC",
"aX c #4AC7D4",
"sX c #58C9D4",
"dX c #51D2DD",
"fX c #68CBD3",
"gX c #4FD9E8",
"hX c #5BE1EF",
"jX c #888A83",
"kX c #88938B",
"lX c #8B938C",
"zX c #959388",
"xX c #999A95",
"cX c #A39A92",
"vX c #94A39C",
"bX c #A4A49B",
"nX c #90AFAF",
"mX c #ACB1A9",
"MX c #8AC5C8",
/* pixels */
"X ; < l f g 8 zX~ 7 ; 4 ; ) x p i < < u +.-.R ' 7 g i Q E k ! i.*.#.o > O , > > > M.r O.W )...Q p.+ 0 X E f @ f.f d x T k , o.5 ",
"* O o W % 8 < z.xX$ , ; = 7 ; l < g M k bXk 8 ..E W ] 8 T z / f.y.e o y O x : ; 0 0 t T  .+.Q 4. .T y.f.k 8 jXf.r W s 7 k j f.l.",
"> + # + i s ~ x.-.* k 8 7 1 x ' ] : m 0 ~ u./ 4 M ] l ` r p.( { / 9 &.l.7 jX=.*.= 3 f.8 k  .3 jXx.xX*.jXT ! 8 Y 5 8 ..r =.N.i M.",
"zX@.( ..z s x.zXl.f.l.X.O.2 l _ | ' u.kX*.= j R z R d Z.i.+.0 ` %.8 / 8 w  .) ~ 1 : o.x.=.~ o.+.@.t N.y.: , $ s i 1 s $ N.3 d jX",
"l.N.E t % ) jX@.a.8 Q z ! o.d. .mXn.] , f.4.zXM.t x u.l.d.o.Y @ s 8 = t / 5 W 5 &._ d.X.8 r s $ % 3 ( > z 1 s l z z i { xXd.) a.",
"5 + 8 # O.-.8 W ) % l @.[ r Y 7 , m p l.y.o.u 4.u.#.M.l.d.#.*.N.cXjX..$ 8 7 3 5 *.=.#., 1 # 7 R r 5 4.xX  s 2 u d < a = T a.8 f ",
"2 o ` k ( f.~ -.3 z Q w E %.=.m f ] ` Q *.Y 7 %.X.7 i.d.O.>.{ T ..*.&.= ] ( t   & jXk.! +.! / e q x - % ! M.f.+.*.N.c.jX@.3 ! : ",
"k r k 5 zXi.t N., $ , ) a.M.i.w Q O.{ u.' x [ $.| g.lX9.C F F M ;.F k.uXm %.%.^ b x &.X.8 , # # t ) x y.j.+.a.( j.+.4 @.; 5 r ~ ",
"n ! w - xX! = ] =.t o i.4.0 8 a u M u.j.).Q } ;.e.r.6.;.F c S N 2.3.uXtX<.g.s.%.| ' ).p.4.O.6 ^ g.( f.>.( = 7 5 & =.xX#.X g 0 7 ",
"Q E l.p T m m n 3 n.n.jX. ).l [ p B $.b.6.).b.).<.r.<.Y.Z c S K F Z uXuXc 7.Z 3.C x E 1.r.s b s 8 s z ) 8 ; d W 3 # jXjX~ + % : ",
"0 jX1 d ! z x W Q _ . p.* O.b b V 9.r.j.b.3.kX_.(.$.c J w.5.J I 4.uXuXuXN H 1.2.Z b x r.| j a u.p.0 d.*.: g W 3 f # =.x.p.x #.~ ",
"! & < g f [ Q g _ m s ] d.s.6.3.=._.vX$.Z Y.T.(.b.;X].Y.(.q.R.;X].uXuXtXN P 5.$.2.N e.$.v M ;.9.[ g.) ! + < > g s @ i.z 5 ~ X.a.",
"s p.u C s [ n z x x 2 y.'  .%.B ' _.).5.L (.(..Xt./.Y.T.T.w.K U uXuXuXtXP G P K 3.t.Y.1.C j Z 1.m 4.] l.a.% o. .8 ..#.! f W s l ",
"a bX  >.z n l z { m &.} 1.h.4.<.V 1.v.b.q.7.P uXuXI E.U P.,X XgXuXuXuXtXW.U.`.v.`.(.2.uXS <.g.e.g.g.j.n.lXk.4.xX+.+.5 z t W O.n ",
"u p.i.g d x m m [ X.Q < 1.4.b.3.C D w.].`.P uXuXP.q.E.P./.>XA.uXuXuXrXuX!.+X'.R.`.T.v.uX7.v 3.3.4.} 4.' k.s.i.N.i.zXM.i m l n z ",
"g ..N.& m m _ k T u.<.2 b V 0.e.0.7.P U.q./.uXuX^.@X{.{.>XF.uXuXuXuXrXuX&X/.F.W.`.U 8XuX8X0.(.b.V v B x 4.jXl.d.X.Y *.#.[ s h b ",
"u y.bXO.r :.Y n.n.b.m j A D t.0.(.V.P.Q.!.uXuXuXOX|.{.&XH.uXuXuXuXrXqXuX@X{.H.F.!./.uXuXuXU.C.D D F 1.;.l 4.Q m 6 7 &...l m m :.",
"i % _ jXx.jXmXi.j O.s.9.0.e.2.t.2.U q.B.W.uXuXuX{.&X%XH.J.uXuXuXuXqXqXuXJ.#X#XH.S.F.uXuXuXP J I T.e.F F $.[ m j i b , l.n p i M ",
"l.8 % d. . .+.%.<._.;.F Z (.`.;X;XU P.+XeXuXuXuXpX6X5X$XuXuXuXuXtXqXqXuX2X2X2X|.H.G.uXuXuXQ.U I V.Q.C.F ^ 9.O.l g n Y bX] n p = ",
"m.& %.W * = 4.} mXF Z F <.`.C.T./.Q.>X+XuXuXuXuXJ.5X*X8XuXuXuXuXqXqX0XrX2X2X2X$XJ.eXuXuXuX!.!.P.S Q.2.C r.g.g.).k d.jX, *.u.Y j.",
"d.0 b p X.@.3.[ <.;.8.w.B.T.Q./.+X+X@X@XuXuXuXuX3X3X7XuXuXuXuXqXqXtXuXuX3X3X3XK.K.uXuXuXuXD.+X/.C.;X(.C.3.k.(.kXs.u.W k k 3 _ lX",
"! ` t a l 4.>.g.<.t.8.B.0.V.P.W.^.&X&X@XuXuXuXuXuXuXuXuXuXuXqXqXqXqXuXuXaXiX3X3XsXuXuXuXuX&X~.A.B.MXT._.c x x r.^ Q ! W W m p.zX",
"3 u < i p @ ).0.v 0.8.V.B.P ^.}.}.@X=XpXuXuXuXuXuXuXuXuXuXqXqXqXqXqXuXuXaXdXiX3XuXuXuXuXuXoX{.A.V./.T.].Z V 3.1.} g.T g Q ` W w ",
"! w k.) d.j.} b 8.e.7.q.W.V.}. X=X=XfXyXuXuXuXeXuXuXuXuXuXqXqXqXqXuXuXuX7XdXaXeXuXuXuXuXuXJ.~.S.^.B.V.(.V V 1.| ;.k.O.z W ] >.mX",
"r 1 Y jXy.#.6.S t.L q.B.B.~.~.:X&X=X=XuXuXuXuXqXuXuXuXuXqXqX9XqXqXuXuXuXdXhXaXuXuXuXuXuXuXXXXX{.+XE.P.v.Y.1.t.r.).4...%.! = bX).",
", ; Q 0 t < ;.3.r.(.H B.!.W.+X&X>X$X*XuXuXuXuXqXtXuXuXrXqXqX1XqXqXuXuXuXdXgXuXuXuXqXtXuXuX#XXXXXfX X/.w.'.(.1.e.{ 4.i.M.jXbXT ` ",
") 0 k f s b B D 7.t.R.R.I.-X:X}.#XK.*XuXuXuXqXqXqXtXrXqXqX1X9X0XqXuXuXuXgXgXuXuXqXqXuXuXuXfXpX%XF.~.A.U ;XK H H x | 8 ( #.T M : ",
"W W r 3 1 k L L 7.'.v.Q.!.E.@XG.H.K.*XuXuXrXqX1XqXqXqXqXqX1X1X0XqXuXuXuXgXuXuXqXqXqXtXuXuX*X5XoXXXP.A.B.`.J D V <.1.] < z.g W @.",
", k _ y...l.B v D J w./.^.OX}.|.5XsXsXuXuXrX0X1X1XqXqXqX1X1X1X1XqXuXuXuXuXuXqXqXqXqXrXuXuX*X*X$XG.D.A.A.;X`.J D x 1.) ! i.+.N.z.",
"$ s ..k 3 z b.e.(.R.K W.!.@X%X%X*XfXiXuXuXrX9X1X1X1X9X1X1X1X1X1XqXuXuXuXuXtXqXqXqXqXtXuXuX*X=X$X=XF.D.D.P.v.Z 2.j j f 6 3 +.#.N.",
"T #.X 5 2 3 r.7.U.R.I /.:X X%X*XJ.iX3XuXuXrXqX1X1X1X1X1X1X1X1X1XqXqXrXuXqXqXqXqX1XqXuXuXuXL.iXJ.J.XX~.!.,X;X(.r.h.^ X.% n.i.0 = ",
"T p.; > d < D I q.`.G ^.+X%X$X4X*XsXL.uXuXrXqX1X1X1X1X1X1X1X1X1XqXqXqXqXqXqXqX1XqXeXtXuXuXdXL.J.=X>X+X!.-Xv.(.b.j 6.2 s W / # z ",
"=.*.o > ; 1 N S D -XV.^.{.>X%X*X4X*X3XuXuXrXqX1X1X1X1X1X1X1X1X1XqXqXqXqXqXqX1X1XqXqXuXuXuXiX2X$XJ.H.S.B./.`.2.0.Z Z i m E s E i.",
"=.e o y o g S S 2.w.w.P.}.@XXX=X3X3XdXuXuXrXqX1X1X1X1X1X1X1X1X1X0XqXqXqXqX1X1XqXqXqXuXuXuX3XL.*XJ.J.J.S.,Xw.K e.$.H ] 8 T W / f.",
"^ 9 &.l.7 jXb.v.J P '.P.!.OXXXpXsXfXsXuXuXrXqX1X1X1X1X1X1X1X1X1X1X9X9X1X1X1X1XqXqXqXuXuXuX<X3X*X#XH.|.E.T./.0.F L 1.z _ r p.( { ",
"$.8 / 8 8  .e.6.P K T.-X+XoX%X*X4X3XdXwXuXrXqX1X1X1X1X1X1X1X1X1X1X1X1X1X1X1XqXqXqXqXuXuXuX2X2X*X$XOX&X>XQ.P P 3.<.;.a Z.i.+.0 _ ",
"s w - T / 5 8.H T.V.'./.D.~.J.J.K.*XiX7XuXrXqX1X1X1X1X1X1X1X1X1X1X1X1X1X1X1XqXqXqXqXuXuXuXiXsX*XfX6X}.B..XQ.;X].%.F u.z.d.+.Y # ",
"cXM. .$ 8 d B <.v.R.T.B.D.D.H.%X*X*XsXgXuXuXqX1X1X1X1X1X1X1X1X1X1X1X1X1X1X0XqXqXrXtXuXuXuX3X*X#X|.OXS.-X/.U.G v.h.9.M.j.d.*.*.N.",
"..y.#.= ] ( $.j D ;X-XP./.^.OXXXK.3X2X3XuXuXqX1X1X1X1X1X1X1X1X1X1X1X1X1X0XqXqXqXqXuXuXuXiXiX4X*X#X|.}.W./.U J e.5.M u.d.| >.| T ",
"_ k a...k / 5.2.K P R.I.A.D.G.G.oX4X3XaXuXuXqX1X1X1X1X1X1X1X1X1X1X1X1X1XqXqXqXqXqXuXuXuXsXsX5X#X#X X}./.v.I 7.5.1.g.zX#.f g l d ",
"m /  .T T *.h.0.0.2.[.`./.}.F.oXpX*XsXiXtXuXqX1X1X1X1X1X1X1X1X1X1X1X1XqXqXqXqXqXqXuXuXdXiX*X#XH.H.F./.-X'.<.2.<.e.r.o.Y f < 2 < ",
"8 8 . , : ` $.e.2.K 5.P. XD.{.H.J.#X*X4XiXuXeX1X1X1X1X1X1X1X1X1X1X1X1X0XqXqXqXqXuXuXuXdX#XsX#X#XF.~.W.'.Y.].(._.;.u.z y.4 o g l ",
"t @ 6 g % 0 ;.0.L G K /.V.B.S.%X=XXXpXiX2XuXuXqX1X1X1X1X1X1X1X1X1X1X1XqXqXqXqXuXuXuXL.pXK.*XH.H.H.}./.`.(.w.kX_.b.x + d ' ~ a h ",
"c.* $ ~ $ n <.} 7.V U.w.I A.~.@XoX=X=X*XK.uXuXqXqX1X1X1X1X1X1X1X1XqXqXqXqXqXuXuXuX7X2X3X5X4X=XOX/.-X,Xw.K (.h.(.g.lXM.=.=.` y.jX",
"#.0 # W 3 $ B B 3.v.T.w.B.G P.oX~.&X%XpXpX<XuXqXqX0X9X1X1X1X1XqXqXqXqXqXqXtXuXuXuX3XK.4X#XoXoXE.P.-X[.t.P v.h._.4.g.*.#.=.Q @ w ",
"d.zXQ 5 ] ! n.6.(.b.7.G I v./.^.+X&X=X=XfXpXuXuXqXqXqXqXqXqXqXqXqXqXuXuXuXuXuXeX<X2X4X$X%X=X+X!.B.I.Y.v.7.1.Z g.%.u _ 6 w zXy.mX",
"x.c.jX*.( p.j.4.).e.t.V B.G I.Q.^.^.&XXX>X5XwXuXqXqXqXqXqXqXqXrXuXuXuXuXuXuXyX2X$X=X#XH.#X X+X!.U V.I.].(.C kXx C 5 l t ) jX5 , ",
"g u.=./ d.( Z | f.B 6.G P P.'./.A.D.D.H.%XpX5XuXuXuXuXuXuXuXuXuXuXuXuXuXuX<X2X$XOX4X#XS.S.S.^.Q.V.q.P V.H v.b.m | u.` M x.1 1 z ",
"8 d.jXk.+.g M F :.g.F 0.C.U.T.I B.E.^.{.F.%XXX<XuXuXuXuXtXuXuXuXuXuXfXiX*X*XXXfXpX=XG.S.!.A.!.I.R.T.I e.8.6.j p >.C z *.; s : m ",
"k ( bXT a [ :.M j D t.B S D J U /.W.B.~.^.{.|.H.J.#X|.pX*X<X<X<XK.K.*XfXpXfXfX=XF.}.+X/.^.W.w.I.nXt.F c 4.vXn.*.W #.#.1 2 Q % 4 ",
"a 3 &.t M :.:.m h v V 8.v e.I I V./.W.A.V. X}.F.H.|.XXfX$X$XJ.|.pXoXH.=X&X@X@XoX}.:XP.A.U /.`.vXvXv <.b.b.' l 4.x.z.d.k d 1 @ @ ",
"l j.N.# b M :.C u F F } e.3.C.P D  XV.U  X X-X:XF.:X6X{.%X=X|.6X>XF.%XXXD.~.@X~.MXE.P.B.U ].t.r.t.2.vXs.x j l > 4 f.3 1 2 0 @ 2 ",
"i.x.mX-.C h m a v ] ' $.e.C (.t.e.;X/.R.V..X-X:X X X~.~.F.~.}.6X=X~.H.F.+X/.}.E.W.A.I.V.B.C.C.T.Y.r.9.4.< j 3 8 ,..., k 8 g $ z ",
"f t m.d.! :.j T jXg.4.L N C.H F J nXY.].J K I /.I.P.W.E.E.~.&X,X^.^.P.D.E.^.W./.P.P.V.q.0.P 8.8.0.h.j.1.i b 7 +.5 =.$ , T i R = ",
"{ < 3 8  .n.5 2 s *.%.4.1.4.F B 3.v.t.].L P I.I.I./.V.A.P.W.E.V.B.B.B.B.B.J .XI.D V.0.q.7.C 0.0.8.4.g.k.h W l :.~ =.. s d @.f.8 ",
"3 8 R k 7 d.8 3 n ' kXj.j x ' N 3.D P b.S Z 7.w.w.'.U.q.V.V.W.MXV.U '.C.`.'.0.D w.e.2.L 0.I e.9.Z.g.vXs.y.mX#.( o.%.d 2 ( =., 1 ",
"5 5 p k R mX= l p j j.g.q m [ Z r.7.1.4.v.7.C.Y.].U.C.T.V.I nX.XP K q.;XR.v.v.S t.L 2.P F 8.;.).j.g.X.+ O =.: d 2 & @.x.xX0 > b ",
"u i p 8 x N., x g a zXj.s.j n ' vXs.6.$._.b.3.t.2.t.(.].;XnX7.q.D N 7.1.<.S 2.2.r.g.x F 0.} s.s.l.Q t < 8 a.Y + O < f.zXT g k - ",
". $ z r g.w 4 _ M , k.o.M.bXj.%.j C m ' _.Z H K B 7.H e.r.3.q.C 6.A L H F I B D <.6.g.u.O.j.j.T _ i 5 d 5 jXp.7 < O $ +.) 1 @.k ",
"7 , + = &.7 w n g *.a.a.$ w a.Y Y - > 2 a.7 7 i R  .] : z.l 0 @.x Q r 3 2 f z x m l. .+. .8 +.* o 1 d z.! @.f.cX: w : ; #.lX  b ",
"xXd.&.x.a.) 7 +.kXd.a.*.3 , ~ / > = $ b lXd.7 j , / ) ! i.+.N.z., f _ y...l., + @ 3 0 i.Q O.T 6 a.jXa.= > , % ! a.+.f.M.jXa.j.@.",
"% o 1 3 r z.l.) * 7 % < 8 , o.[ a.3 7 x ~ @.= R # : f 3 6 %...zX; 2 ..r 1 W -.) y.a.%  .! >.o...k zX#.$ 1 , i l.r W / 8 f 2 c.f.",
"@ 5 - < 7 = 7 a.+.$ , 2 , $ &.% z w k ! zXN.a.&.*.0 X.% n.a.5 3 T +.X 8 7 1 >.W O.y.$ >.x...O...: #.0 4 Y 5 3 d.k Q f s 1 z zXu.",
"7 ! m * 1 k k j.) o $ 4 $ f.2 + %.n.=.Y jX) =.a.+ X.7 p z / # z T a.; > d , 1 f W d.X +.y.4.>.y.d l.  / 0 &.: bXp f d x w < jXt "
};
