/* XPM */
static char *result[] = {
/* columns rows colors chars-per-pixel */
"64 64 224 2 ",
"   c #010101",
".  c #060708",
"X  c #0B0B0C",
"o  c #12100E",
"O  c #0E1114",
"+  c #131413",
"@  c #151819",
"#  c #1C1C1B",
"$  c #221F1D",
"%  c #1E211D",
"&  c #25221D",
"*  c #131C21",
"=  c #1B1E22",
"-  c #1D2325",
";  c #1D242B",
":  c #1F282B",
">  c #1F2A34",
",  c #232524",
"<  c #2A2422",
"1  c #252825",
"2  c #2C2B25",
"3  c #22262A",
"4  c #242A2D",
"5  c #2B2C2B",
"6  c #332F29",
"7  c #233521",
"8  c #2E312E",
"9  c #33332E",
"0  c #3A372D",
"q  c #242C33",
"w  c #2A2E32",
"e  c #242D39",
"r  c #263135",
"t  c #2C3234",
"y  c #26323C",
"u  c #2B343B",
"i  c #2E3A3E",
"p  c #333534",
"a  c #393633",
"s  c #343935",
"d  c #3C3B35",
"f  c #33363A",
"g  c #383739",
"h  c #343A3C",
"j  c #3B3D3B",
"k  c #473A2F",
"l  c #413F33",
"z  c #423E3B",
"x  c #33422D",
"c  c #3C4737",
"v  c #3D413D",
"b  c #43433C",
"n  c #494539",
"m  c #4B443D",
"M  c #4B523B",
"N  c #263341",
"B  c #2C3642",
"V  c #2D3A43",
"C  c #2C3548",
"Z  c #2E3D4A",
"A  c #333D43",
"S  c #363A44",
"D  c #3A3E42",
"F  c #343F4A",
"G  c #364143",
"H  c #3B4344",
"J  c #3C4A47",
"K  c #35424B",
"L  c #3B444A",
"P  c #3E494E",
"I  c #354454",
"U  c #3A4652",
"Y  c #3C4953",
"T  c #3A4B5A",
"R  c #434443",
"E  c #4A4647",
"W  c #444945",
"Q  c #4B4B44",
"!  c #43464A",
"~  c #444A4B",
"^  c #4C4D4B",
"/  c #514C44",
"(  c #524E4B",
")  c #495447",
"_  c #4D514C",
"`  c #5B5346",
"'  c #53544B",
"]  c #53534D",
"[  c #5B554C",
"{  c #59584D",
"}  c #444C53",
"|  c #434954",
" . c #4C4E51",
".. c #4C5253",
"X. c #475359",
"o. c #4A545C",
"O. c #535452",
"+. c #595552",
"@. c #545954",
"#. c #5C5C54",
"$. c #545659",
"%. c #555B5B",
"&. c #5B5C5B",
"*. c #625B4C",
"=. c #645C54",
"-. c #625E59",
";. c #5D6155",
":. c #55605F",
">. c #5B615C",
",. c #636356",
"<. c #64625B",
"1. c #6B645B",
"2. c #65685B",
"3. c #6C695E",
"4. c #736C5D",
"5. c #4A5762",
"6. c #595D62",
"7. c #5D6363",
"8. c #5B6269",
"9. c #636463",
"0. c #646963",
"q. c #6A6B64",
"w. c #686966",
"e. c #65666A",
"r. c #6B6D6B",
"t. c #716D64",
"y. c #766F69",
"u. c #6C7067",
"i. c #737265",
"p. c #7A7567",
"a. c #74736C",
"s. c #7A746B",
"d. c #7B7B6D",
"f. c #6E6F71",
"g. c #6C7373",
"h. c #737474",
"j. c #757A75",
"k. c #7C7B73",
"l. c #75767A",
"z. c #787878",
"x. c #7A7A7C",
"c. c #82786D",
"v. c #817D74",
"b. c #887D77",
"n. c #798175",
"m. c #7C827C",
"M. c #80806B",
"N. c #828174",
"B. c #888675",
"V. c #84847B",
"C. c #8A897C",
"Z. c #747B80",
"A. c #7D7E82",
"S. c #7E8282",
"D. c #848484",
"F. c #878882",
"G. c #8B8B82",
"H. c #85868B",
"J. c #86888D",
"K. c #8B8B8D",
"L. c #928C84",
"P. c #8D9186",
"I. c #949484",
"U. c #9C9586",
"Y. c #94938C",
"T. c #878A92",
"R. c #8B8D92",
"E. c #8F9196",
"W. c #8F9299",
"Q. c #929295",
"!. c #999A96",
"~. c #95969B",
"^. c #96989E",
"/. c #9B9B9D",
"(. c #A29992",
"). c #9EA19A",
"_. c #A6A69C",
"`. c #9699A2",
"'. c #979BA4",
"]. c #9B9DA3",
"[. c #A09FA3",
"{. c #9FA0A4",
"}. c #9EA3AA",
"|. c #A2A2A6",
" X c #A7A8A7",
".X c #A3A5AA",
"XX c #A7A8AB",
"oX c #AAAAAE",
"OX c #B1AEA5",
"+X c #AEB4AB",
"@X c #A6A9B1",
"#X c #ADADB3",
"$X c #B0AFB5",
"%X c #AFB0B6",
"&X c #AEB1B9",
"*X c #B1B1B6",
"=X c #B4B4BA",
"-X c #B8B7BC",
";X c #B7B8BE",
":X c #B9B9BE",
">X c #B9BBC3",
",X c #BCBDC4",
"<X c #C0BFC4",
"1X c #BFC0C7",
"2X c #C2C2C6",
"3X c #C4C5CC",
"4X c #C8C7CE",
"5X c #C7C8CF",
"6X c #C9C9CF",
"7X c #C5C7D0",
"8X c #C6C8D1",
"9X c #CCCCD2",
"0X c #D0CFD5",
"qX c #CFD0D5",
"wX c #D1D1D6",
"eX c #D3D3D9",
"rX c #D9DADE",
"tX c #DEDEE1",
"yX c #E2E2E5",
"uX c #E6E6E9",
"iX c #EBECED",
"pX c #EFEFF0",
"aX c #F3F3F3",
"sX c #FFFFFF",
/* pixels */
"= q y F F F g Y./ i w t t { J V V y y y ;.q.W ..h F B ~ Q D ^ q.-.<.; e > y e t q V.b $.| m.%.! r.- m = Q A 2 a.j S L ~ W r #.0 ",
"8 > ; J w g t c.!.4 t r 8 i r G y K T G ).J h @.Q ~ ..g Q L ..p.0.c : M 4 K q q z z n Q o.&.^ 8.] Q 9.a.H v G.s.b P G h G Z s.k.",
"q , 2 1 f A / v.4.t v v s i K Y ..r Y v ` 0._ s I ..L } b r.( o.) k <.k.h G.3.,.t p s.j b O.s D.M.!.,.F.m ^ g R a j +.d 1.C.B V.",
"I.=.] +.J Z b.I.d.i.k.@.%.i K } %.Y r.P.{ s K J t # | S.A.x.l.l.x.z.J.@ @ ] +./ f w #.c.<.] #.#.*.m C.9.r u 5 A B u G q V.s B I.",
"k.B.Q n 2 { G.*.4.j ~ L ^ ;.a...@Xm...t i.&.x.X l.5X9X9X9X9X5X<X3X5X2X3X3XR X 0 7.} a.@.h R A 4 w 9 @.r G y A K J H B o.Q.y.` r.",
"d , z 2 @.q.D W { 4 K =.X.v Q A u ~ V d.b h..X8X9X6XwX9X9X9X9X9XwXwX6X3X3X3X3Xe.a z -.t t 2 h b n a 7./.X A B y F y C p / y.g H ",
"i ; | H O.c.` 1.a L ~ v W #.1.J G ..|   Q.5X3XiXiXuXiXwX9X8X8X5X4X9X9X3X9X4X4X2X,XR.>.^ -.E O.v x J 9 8 _ V.d.&.,.N.v.C.=.0 ^ t ",
"J b A d L.w.n v.t 4 u { i.V.q.v P E  .9XeXrXiXiXiXiXiX9X5X3X5X5X8X5X9X4X3X6X6X3X3X5Xh.+ p t 4 7 n { L 7.n.&.t.+.k.;.s =.4 d b Q ",
"U ^ v 0 !.^ 9  .1.n > u.7.b s V q ! 3XeXpXiXiXiXiXiXiX8X3X7X7X1X7X4X4X4X8X9X9X4X5X3X9X=XR $.g ) g.^ s.6.( p D p 9 9.!.<.# A n u ",
"~ Q k.i Q Y Y U p n.n.S., S.K w D 9XyXiXiXiXiXiXiXiXrX9X3X1X3X7X3X3X<X3X<X5X3X5X5X3X4X4X9XD V f j A H { v > D L p 2 G.D.( 1 8 w ",
"j G.B Z ^ L K P | Y & r.4 @.C ..<XuXiXiXpXiXiXiXiX9X5X3X7X5X3X7X5X3X3X5X3X3X4X4X3X3X3X6X7X,X! 9.t.v a.2.t A J a D 2 1.v.r.J -.( ",
"_ 5 y F H } ~ K } P A _ i.#.p 8XuXpXpXiXiXiXuXuX9XwX9X9X9X7X9XwX9X3X<X4X3X5X4X3X5X3X6X4X7X<Xf.X Y r.` ^ 1 e e L A & q.U d / O.t.",
"h q.y X.G X.Y K L L t <.v $.6XwXuXiXpXiXeXwX9XwX9X9X9X6X9X5X<X5X6X5X3X3X3X3X5X3X5X4X6X4X3X#X,XJ.4 9.^ d.p.9 +.^ j @.1.^ D ! A L ",
"F }.o 8.L U K L 5.U #.| L S.6XiXiXiXuXtX9X5X5X6X4X3X8X3X5XeX9XeX9XwX4X3X4X4X9X6X9X9X3X3X3X=X=X3Xe.0.a.k.K.j.8./.#.>.a G b W %.U ",
"N r.q.K V L U Y | ] R # 9.4XyXiXiXyX9X9X9X5XwX3X3X3X5X3X9X9X3X3X0X9XwX9X4X9X9X4X9X6X6X3X5X,X=X=X|.% ;.W h.t.q.B.q.Y.V.B Y K I L ",
"K O.C.6 U P } R n 9.^ + 3XrXiXiXuX3X5X4X5X>X,X-X>X9X8X5X9X3X3X,X>X,X,X<X9X4X8X4X6X4X6X3X3X4X<X=X>X@ h h &.V.d.h.@.R &.<.o.B I I ",
"N 0._.%.b 5.j N.k.h.8 A.5XyXiXyX9X9X6X9Xx.D.D.H.D.6XE.9X3X3XXXx.H.D.D.f.9.8X7X3X5X6X3X5X8X5X3X#X#X3X= W u %.W U f A <.%.K U T o.",
"B 5 } G.v.G._.3.w ( a.3X9XiXiX6X3X3X4XR.-XsXsXsXsXsXD.-X3X$.E sXsXsXsXsXaX6.7X7X3X3X8X3X3X3X3X#X=X=Xl.u _ ~ ~ h B I 5 m.K Z B T ",
"d.j 2 f.O.O.&.] ~ m., 3XeXuX9XwXwX3XA.~.sXsXsXsXsXsXsXz.f.h.sXsXsXsXsXsXsXD.>X3X3X3X3X8X<X9X3X3X&X=X`.t 0 >._ h V L W /...I V s ",
"n.6 >.J 8 a :.~ OX@ =X3XuXwX4X6X9X4X, sXsXsXsXsXsXsXsXsX  eXsXsXsXsXsXsXsXaX, 5X<X8X3X5X8X5X5X5X#X-X>X# 9.q.u.x.j h.F.p ,.q.J a.",
"s.D L V #.*.6.L ^ + 8X8X7X9X9X9X9XS.wXsXsXsXsXsXsXsXsXsXsXsXsXsXsXsXsXsXsXsX9.3X7X8X5X8X9X3X9X8X>X;X,X&.g s.l.H.q.9.! H G s | K.",
"^ } m Z K :._ q.J T.5X8X8X3X7X8X9XV.wXsXsXsXsXp p p Q.sXsXsX2Xp p p sXsXsXsXsXe.9X9X4X8X3X9X3X3X>X,X=X6XX 2 p 9.Q J ^ ! ~ P r.I.",
"p N y B V 1 z.%.# W.5X8X7X3X8X8X5XA.wXsXsXsX&.        iXsXsX        2XsXsXsXsX .3X9X4X9X5X5X3X3X,X=X*X9X+ f $.X.~ e.! G Y ..| v ",
"^ R h.+.a.k.b t f Q.5X3X8X7X9X9X9XA.wXsXsXsX&.        iXsXsX        # sXsXsXsX|.3X5XeX9X3X3X3X3X4X#X=X5Xe.4 ! Q ~ j.+.L P _ %.*X",
"v u W F.9.<.@.u ^ `.4X8X5X8X5X9X9X=X2XsXsXsXh.      + pXO.aX,       uXsXsXsXo 3X3X3X9X9X1X8X5X3X9X*X$X3XR.h 5.0.k.&.$.&...9 ).S.",
"t 4 ! b n y ! ^ ..9X3X5X9X4X4X9X9X9X, sXsXsXsX/.Q.).6XsX. eXyX)././.sXsXsX$Xx.3X7X3XeX9X9X5X3X5XwX=X=X;XR.] / @.Q @.q.B.F._.W | ",
"` v H D D I t A g 9X9X6X4X9X9X3X3X3X3X^ sXsXsXsXsXsXaX, 4X5 pXsXsXsXsXsXsXS.;X5X8X3X9X6XqXeX9X9X3X$X#X#XR.5 J H p } v ' =.Q T w ",
"~ ! b p u G L L g 9X4X9X4X3X9X3X<X3X5X=Xh.$XsXsXsXz.h.,X9XwXr.tXsXsXsX$Xl.~.5X5X3X9X9X9X1X7X9X5X5X$X#X*XK.q i B ^ ....u c.F R *.",
"t G } 9.%.j.p , p 3X5X9X5X4X5X3X9XqX9X3X3X].      4X9XwX9X9X9XR.      j.6X4X3X6X9X9X9X6X3X3X5X5X3X#X#X#XR.@.A A t _ { ^ w.&.B.p.",
"4 A +.b p L 4.] g 9X3X8X5X9X9X9X8XeX4X3X3X3X3XwX3X5X5X5X5X3XwX9X5X1X3X3X3X0X0X6X3X3X3X3X3X3X5X7X9X#X#X&XK.m 0 L 2 q D s f &.-.C.",
"E &.= g f p 7.! g 9X1X8X9X9X4X9X<X9X5X5X3X3X3X9X5X5X3X3X3X3XwX8X3X3X3X3X3X3X3X9X9X3X3X3X3X2X9X3X5X%X#X=XE.3.i.>.<.b @.2 m.q.z p ",
"E t.w e V y u A g 9X1X9X9X4X8X8X8X9X,X4X3X4X3XeX3X5X3X3X3X3X0X5X3X5X8X2X3X3X3X0X6X1X1X3X3X9X3X2X6X;X=X#XXX] 1.4., +.B i ! ' 2 H ",
"2.;.; y q y e t p wX5X4X8X9X5X5X9X3X7X<X5X8X3X9X3X3X3X8X3X3X4X3X,X3X3X3X3X3X3XqX4X5X3X3X<X4X3X3X1X#X#X#X6XN.W } A L B ~ / G _ q.",
"0.c ; M q F w q g 3X3X4X9X4X5X9X4X3X9X9X3X5X0X9X3X8X3X3X3X7XwX9X3X3X3X3X3X3X3X9X9X<X3X3X3X3X3X3X>X&X&X&XeXw h +.m ~ ..h W L _ p.",
") k >.k.f G.4.=.g 3X9X5X5X8X3XwXwXwX9XwX3X4X7X3X3X3X4X4X9XwX3X0X1X3X3X3X3X3X4XwX-X=X3X3X3X3X8X8X,X#X&X#X6X8 _ h T _ L } b q.' X.",
"%.j _ j d O.+.m $.<X4XwX4X5X6X6X6X3XwX4X3X3X,X3X7X3X8X,X9X3X3X0XwX4X5X4X8X5X9XwX:X=X3X9X4X3X3X8X,X#X=X=X6X5 F R ! W C Z.q.>.z | ",
"A j 0 b ^ j ~ # 4X7X9X4X3X3X3X3X=X3X4X3X8X3X3X7X3X3X,X=XeX0X4X0X0X0X4X3X<X9XwX4X-X#X#X3X3X5X4X3X3X=X$X#X6X5 j.a.m L e.c.a.#.R 2 ",
"(.F.+.4 j B a X 9X9X9X3X3X3X3X3X=X3X4XeX,X3X7X3X7X3X>X#X3X9X3X3X3X2X3X3X8X9X3X3X5X#X#X=X3X3X3X3X,X#X@X=X>X4X; ^ ..O.N.j.h.<.<.B.",
"+.9.<.9 ..[ m   3X0X9X8X4X5X8X>X#X8X3X3X4XwX0X6X9XwX=X;X0X3X9X<X3X2X5X3X4X6X5X4X<X#X#X$X<X8X4X3X3X&X#X#X;X3X. W v 5 O.q.o.6.o.Q ",
"} L t.O.D ] +.X 3X3X9X4X3X3X3X-X$X4X4X6X9X9X9X4X9X4X#X*X<X3X4X4X5X5X3X3X9X4X3X4X3X@X#X$X<X9X4X3X3X&X#X=X=X3XX v j _ t.Q G F K F ",
"Y _ O.E W <.+.#X5X3X9X9X6X9X3X&X,X4X9X9X4X3X3X3X3X=X>X*X<X4X6X3X3X3X3X2X8X5X<X7X3X<X@X*X>X3X<X3X<X%X$X*X*X<X~.3 ~ ~ R t p q B y ",
"G d & t w | 1 .X3X3X3X4X9X3X7X#X3X5X5X6X5X3X3X3X<X#X-X-X9X<X<X3X3X3X4X3X3X3X3X3X<X3X=X=X#X8X3X3X<X$X$X=X*X<X].j h Q s ^ 2 * Z K ",
"m 1 a F 5 z E *X3X3X3X9X5X<X#X=X4X5X9X6X3X3X5X3X<X#X*X=X9X3X3X3X<X9X3X3X7X3X1X3X<X,XoX*XoX<X3X3X7X>X*X*X*X$X0XR ] 6 = q G d Z I ",
"b.8 4 / q U  .3X5X3X4X4X3X3X*X=X5X9X4X5X,X3X3X3X>X#X=X#X>X3X3X6X3X3X3X1X1X3X3X3X7X,X&X$X*X=X4X3X7X9X=X#X#X*X>X*X( q.<./ ( h 9.F.",
"-.j 2 ! g 4 W 3X4X6X9X4X3X=X#X&X5X9X4X9X9X3X4X4X>X$X$X#X>X7X7X<X3X4X3X3X<X7X3X3X7X<X=X$X#X$X<X3X<X0X>X#X#X*X=X6X.  .Q Q M j 1 j ",
"a.Y.E l | # oX4X9X9X4X3X3X=X=X=X4X9X9X9XeX9X9X9X=X$X#X#X>X<X7X7X3XqX<X3X3X3X3X5X<X7X=X$X%X*X,X3X7X<X<X#X#X#X#X<XD.@ A 2 w Y.q.+X",
"v.b.V.<.O.5 9X6X9X6X8X3X,X#X=X$X5X5X9X5X9X9X9X5X$X=X=X@X=X<X7X<X,X3X3X,X`.].'.&X7X7X=XoX%X$X,X3X<X7X<X=X*X#X*X>X#X, u 9 n G.a t ",
"F w.q.^ ] ;X5X4X6X3X5X3X#X=X=X=X<X3X#X@X#X9X9X5X%X%X$X%X>X,X7X&X@X@X#X~.'.`.'.`.,X7X=X@X@X#X$X7X7X<X7X,X#X$X*X#X3XO.A B -.u y L ",
"j a.F.k.p >X3X7X3X9X3X>X$X=X=X@X].].].].`..X].].@X@X#X#XoX].].}.`.XX=X X/.]./.$X3X4X=XoX#X#X#X3X8X4X<X7X#X$X@X#X3X&.t Q 3 B u P ",
"G ] _.W %.8X7X7X3X3X8X&X#X[.^.J..X}.].'.{.].].^.J.T.H./.T.~.'.'.^.~.].*X$X*X-XXXXX5X=X$X%X#X#X#X0X=X[.`.|.$X=X*X$X5X, 3 3 ~ 5 p ",
"F p &.b 6.8X8X3X3X3X,X&XH.E.J.J.].@X}.]./.|.].^.J.T.K.[.E.T.`./.oX/.~.XX|.|.|.|.].#XoX#X#X$X=X=X*X~.].@XoX/.}.-X=X4X  u w u < 3 ",
"K a.C.  7X7X8X7X1X7X&XQ./.].|.'.~.@X].^.XXXXoXoXJ.~./.H.R.~.~.oXoX/..X/./.~..X].:X].T.J.K.~.W.Q. X[.*X.X/.`.`.~.=X9X  4 q j < h ",
"q.v.OX  6X5X7X3X>X|./.R X X X X !.%XXXXX[.XX#X#X~.Q.R.T.H.H.W.*XoX].].`.|. X|.`.[.].E.R.T.Q.Q.~.XX X|.|.~.`.~./.}.^ . t 5 G 4 L ",
"L b n.  ^.>Xl.w.&.& # u 1  .t 4 o R.|.oX~.~.^..XK.T.R.K.R.R./.*X{.{./.`.`..X{.oX]..XW.T.R.T.R.].H.e.f.# X O O # + 0 - 1 p C W 9 ",
" .u s t R j.1 - 3 Q b W D b p 5 g 9 K.oX/./.|.].R.~.K.T.R.R.W.].^.^.`.`.`.!.@X|.~.{.Q.R.R.J.`.@ 3 a [ &.e a y L g ^ # q q =.d.j ",
"s h R H h ,.8 1 B h q.%.3 4 5 ; z q . XX^.~.].].Q./.R.K.R.[.f.H.f.f.A.|.oXoX].^.].|.E.T.R.R.W ! $.O.l.^ ^ D.m z W b 4 4 ] 2.t t ",
"0 c Z K J  X& y e e #.o.- t s t ] B 5 Q XX].}.XXXXE.~.[.8 3 &.E , # 4 g XX X|.^..X`.].R.T.R.4 -.O.( b # ; ,.5 r : & m s.!.l e I ",
"N u C d U B.s h u e j.<.{ 8 t p a.^ Q o w.XX|.{.R.D.( + w.N.g S , @ g 9 X D A.].|.XX~.R.].f.9 ( -.g l e j a.b 3 q u i.U.^ F D 0 ",
"& 4 H b g.c u } Y t j.@.V._.a.] 3 y 2 2 v p g p , 3 1 j R a S - b 1 t t w q @ 6.'.|.XXK.g d #.0 f u d A p F.u.u N > 4 -.[ y ` L ",
"h t ; 0 ,.i j P K ;.u.p.4 j i.b R 2 ; q O.4 q > h z D 3 =.u a M p f 9 1 4 t u 3 . g 2 + R 5 E & = t F c./ *.d.(.t v q q =.P.@ T ",
"!.l.;.N.i.` A #.I.a.u.<.p 9 ^ ..q t % y q.@.q q 1 j b g ] R 1.*.; t h ^ R #.4 # # , 0 O.g W a p f.V.t.0 t w 5 ^ i.#.i.B.F.t.n.*.",
"5 = u t z v.k.{ 8 B 5 r h p @.X.u.s w u l m 1 s $ - w 2 1 %.&.C.4 i +.a 3 u ` l ( O., j s ! R +.z Q.<.4 u y C d.b L O.j G u b.p.",
"& 0 0 y h 0 A i.;.: u s 8 4 <.2 K v v j f.3.{ Q / d _ 5 m.u.g p E &.= g w 4 ~ f R ^ - ! ,.R  .$.8 <.z s D z a h.L ~ G A h L I.e.",
"h ( T 8 u H A j.{ - 4 r w d.y , ;.n.3.v 9.n _ ` , @.B B ! _ 2 H ^ t.q e A e 3 w h +.@ ! ~  .6.9.S k.+ ^ z #.5 _.V D A K v y G.b "
};
