/* XPM */
static char *bf358bf09a144a40e3d334292d9da8c3hAPLMtUBXnKpGTTc[] = {
/* columns rows colors chars-per-pixel */
"64 64 5 1 ",
"  c None",
". c #620031",
"X c #C789C7",
"o c #D5C9DE",
"O c white",
/* pixels */
"                                                                ",
"                                                                ",
"                                                                ",
"                                                                ",
"                                                                ",
"                                                                ",
"                                                                ",
"                  .                                             ",
"              .  .o.                                            ",
"             .o. .O.                                            ",
"             .Oo.oO.                                            ",
"              .OOO...                                           ",
"            ..OOO.Oo.          ......                           ",
"           .oOOOoOo.         ..oOOOOo..                         ",
"            ..OOOX.         .oOOOOOOOOo.                        ",
"              .Xo.         .oOOOOOOOOOOo.                       ",
"              .oO.         .OOOOOOOOOOOO.                       ",
"              .OO.        .oOOOOOOOOOOOOo.                      ",
"              .OOo.       .Oo...oOOOOOOOO.                      ",
"              .oOO.       .O.....OOo...oO.                      ",
"               .OOo.      .O..O..OO..O..O.                      ",
"               .oOOo.     .O..o..OO..o..O.                      ",
"               .oOOOo..  .oO.....OOo...oOo.                     ",
"               .ooOOOOo..oOOo...oOOOOOOOOO.                     ",
"               .X.oOOOOOOOOOOOOOOOOOOOOOOO.                     ",
"                . .oOOOOOOo.oOOOOOOOOo..oOo.        ....        ",
"                  .ooXOOOO....OOO........OOo..    ..oOOo.       ",
"                  .oX.oOOO.....X.........OOOOo....ooOOOOo.      ",
"                  .o. .ooOO....o.........OOOOOOOOOo.oXOOO.      ",
"                  .X. .o..o....O........oOOOOoOOooX.X.oXo.      ",
"                   .  .o. .X...O......oOOOOoX.XoX.....o.o.      ",
"                      .X.  .X..O......OOOOoo. .o.    .X..       ",
"                       .X. .oo.oX....oOOoXoo. .X.     .         ",
"                       .X..XXooOOo..oOOO..Xo.  .                ",
"                        .XX..XOOOOOOOOO.  .X.                   ",
"                         ..  .oOOOOOOOo.  .X.                   ",
"                              .oOOOOOoX.   .                    ",
"                              .oOOOOOo.                         ",
"                          .    .OOOOoX.                         ",
"                         .O.   .OOOOo.                          ",
"                          .   .oOOOoo.                          ",
"                             .oOOOooX.                          ",
"                           ..oOOOo..X.                          ",
"                         ..oOOOo..  .X.                         ",
"                        .oOOOOO.     .X.                        ",
"                        .XooOOOO.    .X.                        ",
"                         ..XooOOO.    .                         ",
"                           ...XoO.       .                      ",
"                              ..oO.     .X.                     ",
"                                .O.      .                      ",
"                                .o.                             ",
"                              ..X.                              ",
"                             .XX.                               ",
"                              ..                                ",
"                                                                ",
"                                                                ",
"                                                                ",
"                                                                ",
"                                                                ",
"                                                                ",
"                                                                ",
"                                                                ",
"                                                                ",
"                                                                "
};
