/* XPM */
static char *result[] = {
/* columns rows colors chars-per-pixel */
"64 64 256 2 ",
"   c #190903",
".  c #1C0B03",
"X  c #1B110D",
"o  c #240C03",
"O  c #270905",
"+  c #2B0C02",
"@  c #330C02",
"#  c #330804",
"$  c #3B0C03",
"%  c #251207",
"&  c #2B1204",
"*  c #2B140A",
"=  c #341304",
"-  c #3B1403",
";  c #33140A",
":  c #39190B",
">  c #2D1614",
",  c #371B13",
"<  c #3A2213",
"1  c #392327",
"2  c #460B03",
"3  c #431403",
"4  c #4B1402",
"5  c #431C0C",
"6  c #481808",
"7  c #531B04",
"8  c #561906",
"9  c #561208",
"0  c #441C15",
"q  c #661B03",
"w  c #761D06",
"e  c #4B230C",
"r  c #59250B",
"t  c #482517",
"y  c #572716",
"u  c #583417",
"i  c #672709",
"p  c #782907",
"a  c #69320F",
"s  c #78340A",
"d  c #672B14",
"f  c #732B12",
"g  c #683317",
"h  c #783817",
"j  c #482A22",
"k  c #573426",
"l  c #54362C",
"z  c #673926",
"x  c #773B23",
"c  c #693F33",
"v  c #7F451F",
"b  c #7A4428",
"n  c #714B30",
"m  c #784834",
"M  c #6E5249",
"N  c #842C07",
"B  c #893707",
"V  c #963C07",
"C  c #822911",
"Z  c #833B14",
"A  c #863816",
"S  c #8B3C14",
"D  c #953C13",
"F  c #A23C04",
"G  c #843A25",
"H  c #8B420C",
"J  c #974709",
"K  c #9C440C",
"L  c #894517",
"P  c #8B441C",
"I  c #934315",
"U  c #984917",
"Y  c #965013",
"T  c #9B5213",
"R  c #9D521A",
"E  c #A74A07",
"W  c #A44C0C",
"Q  c #B34D06",
"!  c #A95307",
"~  c #AC540C",
"^  c #B45609",
"/  c #B55C0C",
"(  c #BB5D0C",
")  c #A34C13",
"_  c #A64916",
"`  c #A35213",
"'  c #AC5313",
"]  c #AD5A14",
"[  c #A3521B",
"{  c #AB541B",
"}  c #AA591C",
"|  c #B25513",
" . c #BB5415",
".. c #B45C13",
"X. c #BB5D13",
"o. c #B3561B",
"O. c #B35C1B",
"+. c #BB5E1C",
"@. c #B96607",
"#. c #BB640C",
"$. c #B56215",
"%. c #BB6313",
"&. c #BB6A17",
"*. c #B4631B",
"=. c #BC631C",
"-. c #B97214",
";. c #884826",
":. c #984C25",
">. c #9C5529",
",. c #8B4C32",
"<. c #89553A",
"1. c #985834",
"2. c #A45422",
"3. c #AC5B23",
"4. c #A85328",
"5. c #A85928",
"6. c #B65C26",
"7. c #A55C33",
"8. c #9C6234",
"9. c #A96328",
"0. c #B46224",
"q. c #BC6423",
"w. c #BD6B23",
"e. c #B9672B",
"r. c #BE7327",
"t. c #A86539",
"y. c #B86936",
"u. c #B97339",
"i. c #C25C0B",
"p. c #C55C17",
"a. c #C3640C",
"s. c #C7690B",
"d. c #D26904",
"f. c #CB730B",
"g. c #D8780A",
"h. c #C36414",
"j. c #CB6417",
"k. c #C36B14",
"l. c #CB6C14",
"z. c #C2641B",
"x. c #C46B1C",
"c. c #CC6B1A",
"v. c #D46C15",
"b. c #C47417",
"n. c #CC7313",
"m. c #CB731C",
"M. c #CC7B1B",
"N. c #D67716",
"B. c #D2741C",
"V. c #D47B1D",
"C. c #DB7C1C",
"Z. c #E27D19",
"A. c #CB5F21",
"S. c #C36523",
"D. c #C36B22",
"F. c #CB6D22",
"G. c #C76B2A",
"H. c #D16A23",
"J. c #C57224",
"K. c #CB7323",
"L. c #CC7A24",
"P. c #C4752A",
"I. c #CB752B",
"U. c #CC7B2D",
"Y. c #D37523",
"T. c #D37B24",
"R. c #DB7C23",
"E. c #D5742A",
"W. c #D47B2B",
"Q. c #DA7C2B",
"!. c #C56D36",
"~. c #C47334",
"^. c #C87637",
"/. c #D67D36",
"(. c #E27D28",
"). c #915C46",
"_. c #99644E",
"`. c #AA6745",
"'. c #B6754F",
"]. c #B87548",
"[. c #C87943",
"{. c #D37E4E",
"}. c #BF8424",
"|. c #D7840C",
" X c #D7861A",
".X c #DC831C",
"XX c #E3831B",
"oX c #E8891B",
"OX c #EA9110",
"+X c #F4981A",
"@X c #F1A316",
"#X c #CB8529",
"$X c #D58323",
"%X c #DC8423",
"&X c #D6872A",
"*X c #DC842B",
"=X c #DD8B2B",
"-X c #DC9227",
";X c #C7823A",
":X c #DD8432",
">X c #DB8B33",
",X c #D88639",
"<X c #DB9439",
"1X c #E78624",
"2X c #E48C24",
"3X c #E3842B",
"4X c #E48D2C",
"5X c #EB8D2C",
"6X c #E89729",
"7X c #EC922C",
"8X c #F39829",
"9X c #E58736",
"0X c #E38D33",
"qX c #E38C3B",
"wX c #F18D35",
"eX c #E59333",
"rX c #EB9434",
"tX c #E4933B",
"yX c #E99A39",
"uX c #F39938",
"iX c #F5A62B",
"pX c #EAA43A",
"aX c #F2AF30",
"sX c #F6A638",
"dX c #B78550",
"fX c #CD8548",
"gX c #D88747",
"hX c #DB9547",
"jX c #D18B55",
"kX c #E48C45",
"lX c #E39443",
"zX c #E89948",
"xX c #F49D45",
"cX c #EE9453",
"vX c #E69855",
"bX c #EAA546",
"nX c #F5A748",
"mX c #EDB44E",
"MX c #F8B64A",
"NX c #E9A555",
"BX c #F5A855",
"VX c #F9B658",
"CX c #D79764",
"ZX c #DFA662",
"AX c #ECAD67",
"SX c #F7AC65",
"DX c #F7B665",
"FX c #F1B771",
"GX c #FCC757",
"HX c #FDCE50",
"JX c #FCC467",
"KX c #FBC677",
"LX c #F9D372",
"PX c #FBB885",
"IX c #FDC887",
"UX c #FEE184",
/* pixels */
"e.9 D v.j.F +X+ = ;.= 5 7 a 5./ IX7.I.{ e.4.s t.8 e e h d h 6 : e 1 t ,.% ; b U s ~.fXlXhXxX3.i ^.E.T _ 1.x ;.1 '.'.c 8.a 5.1.5.",
"x.2XoXE E +XOX$ # = + 7 - 3 - g ; # S.8 5 f 3 o . % o .   e       < _.b b b . X * ; e.I.<XN.H.F.y.Q O.[.:.1.;.l t.jX_.g e.[ H 0.",
"x.R.m.Q.=XBXBXnXKXU.u.KXDXNXNXSXb <.G 3 & o   . X       o j : , M j % n k n t x _.m 3 3 8 r j.I.U | gX{ 7.:.!.X L t.l i x.W S ' ",
"$XF.tX4X&XBXBX>XrXbXzX<XyXP.<XlXkX,X0X- + `.>.1.;.`.z y z z k c u n n m k z ).b 7.d 5.& * ; & - b Z { y.g y.[.. . o * = 4 { j.P.",
"R.=.k.eX4XnXZ yX&XlXbX#.>XVXyXxX<XVXFXc t ^.!.'.'.dXd r L b m r r ;.v z n n z 1.7.Z H o `.0 O   O O z 6.* z 7.7.U CXF.c. .3 7 p ",
"/ P.4XMX$XpXhXpXL.<X<XNX<XP.BXtX9X$XDX<.hX3 7 ' T * . ,.7.t.).d b <.<.`.;.x :.P ;.t.Z 1.| 6.e.F 6.O.7.y.4._ I 2.N 6.Q.o.X.$ @ O ",
"qXM.nX=XzX<X<XKXbXbXnXnX&XQ.&X$XH.sXIX,.BX9.o O k ,.,.z - %   O d % X + <.* : `.r ;.| i E S.e.F Y._ 6.gX2.y.D K 6.6.+. .h.%XS $ ",
"s r.J 6XpX&.nXM.bXb.%Xl.xX1XeXyXFXrX2 G iX6 6.t.S L s ;.s U 7.y.h ).t.5.`.).: o O > # $ =.6.[.kXw S.~.W q.!.{ p.F p.V p.Z.:X9Xq ",
"+ x.e.a.q i r.m.4 M.f ) 5X7XqXuXuXmX& ,.bXj G.p N W S >.p f e.[ > ^.) 7.h P t.>.y.M vX!.5./.^.U Q.jX^.a.V D ) 7 I p. .s.3Xc.V.7 ",
"R./.:X*XL.T.+ ; r qXx 7 $ 8 [ 6XC iX@ g yX^.:.4 H.{.W Q K 6.4.D P Z p.7.>.h P f 2 /.gX1.vXAXBXkX).& + & x A I 4.$ ; 6 8 4 + & 4 ",
"/ 5X5XnXoX8X4 3XJXyXw.VX0Xx.xX3.wX:Xp.sXXXsX9 w q _ C 6.E.p 9.R.C p _ { U y.P ` 1.lXK {.vXi AXDX].BXy t.uXC.N.W.W.eX4X$ 3 d 0.u.",
"V.rX%XsXoX8X5 C.uXuX{ q.5X3X5XwXx.c.p.sX5Xi.GXgXG.t.+ ; [ H.6.5XB _ _ 6.D +.f + ).vXfXFXDXlXhXzX^.I x j.1Xc.8XwX5XW.7Xq g h E v.",
"B.2XXXrX8XoXA z.(.uXR.B x.c.(.1X(./.wX8XwXZ.P lXq.t lXc.BX!.# o + # 7 H.o.h !.= 5 >Xy.S jXcXzXfX7.AX8 9X%X#XnXrXc.M.nXq f &XvX-X",
"i.s.7Xd.8XsXq 3.Z.Z.1Xj./.c.c.^ Q.Z.8Xg.Q MX4 / W.; V cXY.(.v.p {.D 3.s E.[.  O & T.F.nXR.2 + ; + o x W.DXuX XK.XX2Xf.i i k.uX^.",
"R.3XoXoX5X7X+Xy (.v.v.C.i.6.E.z.(.R.XX%XsXp : 5Xt.+ A !.o./.h _ { !.^.5 f Y.{ W d hX2 A 6.1X= ~.| !.1.0 3 7 8 C L k.rX8 N.oX,XU.",
"( p.+XoXV.XX+XA &X7X(.| ( S.8 w kXp.sXc.:.@ o j.i.+ 4 2 p.E.A [ 6.*X/.c.qX:.3.4.V #.eXVXV o ^.wXBX[.qX_ $X,XP h B d 3 + $ - 4 @ ",
"/.xXg.8XXX8XT ! y.= + O O & + ; o O.=.qXT 3.kXD.h.I.f & + ; ; 4.- i.h.^ R.8 { 6 5.$ ;.X + : K E { T.! _ S &.!.kXe.( i.a P u.9.w.",
"o $ q U.'.x [ Y.*Xm.*X&X,X>XrX1X+ e...#.K.sXZ [ ~.:.G.J (  .E #.@.a..X:.NXs.| >.& <XzX/.+ Z 1Xh.xX5.I.nX[ s.F.E.wX^ cX6 P.L.D.i ",
"+ + ].*XM.! O./ #.*XT.I.zXW.V.5X$ =.D ' z.tXt.[ xXD.G.fXbXs.4.t.O.5.%.pXP.FXNXnXfX8.4 8 '.y.rX=.C.6.B.p 4.S.E xXxX3XqXe K.w.:.~ ",
"& + #X*XJ.x.%.k. X] x.E J N.n.%.+ ^.&X;.` sX3.b.../.] AXSX&XfX%.z.3XY w.L.KXDXzX^.G ;.t.+ B gXKX:XQ.Q.V !.Q {.B.tXXXy 5 ....=.(.",
"xXu.8 L.} $.h i F.D U.q.4 ;.oX,.@ . f z.3X( ..3 MXW _ >XMX~ s.f.' +.gXq.V E B D.0.x W.o.N S K h.R.X.{ W.wXp S.~ ' kX< : : %.2XK ",
"~ L.O.f.n.;X8.gX+./.{...W C.@ - AXV aX2 0.5 J N / $ F W ^ V D v.) K I B l./.H s Q.>.2X7.V K g 3XA + j P.(.N.N.$.*X8X8X+ ; 7.7Xi ",
",X] 3.D.M.J e z.n.o.q.i.V.i.XXjXh ` p G.W.d . o O # q eXiXZ.U 6.4 d 2...C S h D 9 O.~ 3XD.U D #X$ t y xX| | E.0.T I.b.R.t m.V =.",
") *.U qX$.W 8.p.' 6.*.j.Q R.h.2XBX3XwX+.8X# o O ; 5 M.<X} zX>XMX>.~.k.O . o 3 d k `.JXr.[ ^ i d ^.U.4 fXq.Q.7X%XH q.6.b.e 7XS.! ",
"] 3.+.#.m.) 4 N.D S W.Y.x.p.i.C.` ( o.W a.o dXQ.4Xk.$.MXJ.yXpX{.lX%X: 0 1.3.3.[ ] L.I.2...L.b.R.%XN.g O ; i + 2 C S._ 9 . . & l ",
"q.' sXz.s.%.@ BX_ { ( v.p.KXs..X^ K 3.~.Q.O bXW.sX6X&XMX6XaXMXe.#XnX* 6 K.O.! [ G...Q.f W.E E n.&Xx.nXt.0 k xXsX8X6.4 S.,X-X, hX",
"| K _ s.C.~ # i.f _ K.C.( a.N.4XK.6._ %.R.. NXgXyX$X] tXmXnX&.BXzX Xo ; v.xXX.| rXwXz.V x.yX%X=XrX5XsX`.k G.uXW.GX6.c T ( -Xc <X",
"V S V s i s W E # p 4 L.f.~ I.# o L I.Y.o o u./.eXtXsX6X6Xp nXMXO.%Xo = qX.Xm.L.xX:XR.:.NXJXB.=X&.0XP - r =Xc.,.f F.[.x.6 o fXhX",
"..I.p T.0.^ I.~ # Z.M.8XGX+.X.Q.%.~ ; m gXy A ;.' _ 8 4 AXu.1X' R f B g 6 g 3.2 o.) _ @ D t.x = + <.R @ G 4 + 6 3 0 rX@ o ; NXAX",
"r.[ i s U.&.<X-XF.v.,XB F.O.G.3.J G.6XvXlXY.bX` yXb.h.*XGX*.K.H lXJ.m.2XyXMXaXpX-.b.$X2 ]./ C.O.K x.B 3 +.D.O . 9.. o .   e <X&.",
"B S D p | BX~ ~ ].^.E.V P 6.' /.,X7Xk.+ *XuXD.K.MX7X,X=.] Y 0.F.UX*Xp J.` e.-XpX<X-.S.2 Z E Q.X.NXh.B N :.).:.Z.BX+ 5 : u.] r 0 ",
"R n.V B T J ..` h # 7.W.h.9Xm.F.l.j.f.. u.1Xb.M.iXH.^.xXJ.*X0.U.K.4Xq.U.<XM.$.nX@.$.lX$ y.(.| V =.V ,.V 6.p { a.R.x.b m ].H.U I.",
"K b.m.*.e.t.O.,XB B s H e.e.J =.V n.OX. gX6.9 y.R.N.4.; @ & 8 n.nXN.cX$ h w.DX^ 5X*.yX+ PX*X~ V E ) 6.Y F { A.H.p.i.i R '.>.( G.",
"` ` B =.0.B =X! ~ / x.BX>XJ q.l. Xn.@Xd 9 R.^.%XfXNX3X:X<X6.@.n.g.@ + y.D.3Xa.v.g.M.- & b xXb.X.A.q.l.u._ A zXQ./.o.u.0.G.c.x.E ",
"=...R E ..0.N.B L.&.R vXL.5.kX2XHXs.aXz j q.w.s gX7XrX .D mXL.W HX4 u.zXvXNXnXhXU.JXmX*.OXs 3.# 2 ,.8 _  .| hXV V S { 2 t I i - ",
"J %.>XL.-X^ Z pX/ ] U %.' ) U.sXaXUXiXy x Y.hXwX6X3XBXy.lX<XeXU.1.- a ^.J $.VXMX&.yXSX~ =.BXMX] 2 z.x.9 o   O i A # O `.9.p L fX",
"I.M.@.$.-Xs.K.L.$.-.$Xs.F.O.Y |.@XGXMXt [.0XR.Y.Q.lXkXj.VX4X-XzXCX0 d J.m.~.#XhX&X>X5.W x.qXn.bXzXCXyXB ;.y oXgXuX3.  1.lXgX;.a ",
"uXVX-XpXMXpX! ..( s./ tXuXnXE s.L.-X@Xy w oXiX| 9X9XhXQ.bXGXxXzX4 o & 4 1.D.nXW D...J B.&.V |.M.4 8 yXK.O.s B.V A Z ;XhXU ` p d ",
"N.G.#X%Xs.s.~ ! ` -.pXg.n.nXB @.n.V.OXt.[ d.f hX<X%.C 2 DXLXNX[ y.5.o o 9Xc.: gX%Xm.W ~ MX+ : & 3 } #X~.+.X.M.I S.Z 9X^ ] H q.2.",
"h.F.#.kX! s.f.|.OXx GX@.&.N.%X2X+XOX>.3 ` ;.G -XaXVX#X^.t hXJXe.yXNX3 fXoX( 8Xd.wX .k.XXuX2Xy j t =XpXc.$./ c.T 3Xq X K.~ K U 2.",
"[.Y <X6X X&.|.@.- & O   x s _ ! u.b y.z.^ rXlX*XDXmXgXM NXKXLXFXmXJXv 8.*XqX8X=.FX3.6.D.FX/.u.B t.nXm.( Z.uX3 O O o e K.#.G.F.T ",
"2X* t a ^.r.*.T :Xk < $.0.r BXk./.T z.| W.D.KX:.L 5.jXcXd LX>X XmXmXj e.cXp.W B /.3.3.| D.( 8 y.w.W W B w A # o . o t a.4XY.4 ].",
"B.k gX>.T I P h 9.z., 0.J i 9X%.3...k.+.6.=.0.) =XL.NXnX;.I.| z./ 4 - ' (.A *.m.( p.h.a.9X8X8 u.B m.[ e.q ' 7 g : a p a.4XS R ` ",
"7X) a.X.m.[ n.l.j.*X+ =.O.D.W G.W B.JXS.^.4.3.Y.N.N.5XbXNXo.[ gXLXnXCXXX:.oX^ ` l.n.h.c.3XoXr i 5XrXsXX.r F.U Y.~ 2XmX8X8 & - oX",
"yX{ h.mX=.a.| h.Y.g.@ G.E 3.h.I B.=.l.W | ' j.kX5XKXP.@ =.T IXNX6XbXSXH.E.c.B S B.j.~ B.h.1.6 y R.T.l.E h.S.~ X.k.2Xf.gXzX> u r.",
"sXp.| rX) h.m.| l.B #.F.c.i W =.X.N #.N.i.( W.Z.3.* + d <X=.G.z.sXsXSXkX8X5XN E C.3XD./ ,X- & + ! 6X#.K K B.V a.nXm.f.IX. : e.9.",
".Xr K /.kX XO.4X~.{.2.3.!. .n.@.s.E ] OX$ ; K J.P.S.y.5 L.<XI.oX8X_ D i D @ U V.#Xc.N.d.F.x q J OXx.B 4 e.) ` 8XL.R.E E X   g ! ",
"XX+ x.:X/.iXu o 3 r u.7.H J [ T e...) aXG !.r.DXS KXhXrX,X[.e.{ e.`.1.z ^.0 ,.[ R.A 8 A 1.L 5 j.A V p 9.& % o i 7 : H ..e T >.o ",
"/ bXD c.7X|.O 2.[ U.b.D.m.I.=.b.W.nX>XaXCX[.IXVXJX%XyXyXP.zXL.#.~ Q.,X4X$. X[ HX; q.6.I.W NXx.:XC 0 k 8 y b o e t.H W.1.m r H .X",
"kX1.H H R O.= i E J c.7Xz.%.4X#.` #.iX].q vX<X6XM.hX+XN.T.=.z.%.^ ) rXn.m.W..XXX: G.p.E.S.F.=.x.pXX./.VXU O.o < ^.T.W X.s W *..X",
"t.t.1.;.x ;XFX9./ ~ ! ( s.%.N..X' ! 7X. O B 2.rXFX.XnXsXF.cX/ T.J D.a.W D @.Z.O 7 qXc.Y.z.E.| 9XS.' 3.lX6.W * < r.m.7X..| >XB &.",
"%.W %.! B V x.$.|.OX+ 9 8 6 q 8 ..1XHX& 3 x.( =X2X9 2 ].PXr /.nXDXx.wX!.XX5XuX3 p B.t.z.3X(.Y.F.B.=.W D W T ; t B.*Xk.c.J K B O ",
"W %.~ zX.XpX&.6Xc.7 . y t >.L ^.0.GX6X@ g DXU M.g M.} l ZXjXs NXf J T.x.L e N s.u.o @ = e gX0XzX0.fXm.yXBX( x.Y s.I gX) gX# r * ",
"$.' ` >XoXLXJX*X&., . b CXAXJ U.M.MXmXy 5 DXU.yXT &.hXm bX&X*XqXw.DXnXe 9.w.gX<XMXo - : j hXZ ^.Z U.P.7.0.mX&.I J P.s + + o o 5 ",
"W 3XuXVX6Xs.VXrXl.= t *XbXmXsX2XM.HXMXS M.$X..-XB x.0. X$X6X$X*XO.r.MXB kXI NXeXVXo 5 j > ] 5.T ! 8.AXT.| 6X2.*.hXh sX= * * O X ",
"@.x.x.#X%XyX0.pXN.* ].r.uXiXrXM.eX-XGXuX.X0XsXqXe.vXs.n.yXk.pXT A <XVXL.*XU eXn.MX% e t t DXmXK.P U h ..&.O.H I s ` VX< > % X X ",
"x.T.#X}.pXlX$.yXs.* 9 T P.$XuX7X@.6XHXmXk.lXW.sX#X~ s.8XM. Xq.2.U ~.#.-.b.6X} @.sX  y n < 0./ &.H H B p pXp J 1.nX-X6 : % % X : ",
"E #.<X}.$XtXGXbXf.$ * f.T.6XaXE :XiXaX& N.9XVX4XM.nXzXyXsXs.] x.NXP.K.I.IX/ x.n.pXc o b t S U m.L B ! ' 5 4 7 R aX& < > j u p *.",
"nXhX<X-.NX#XpX3X+XOXo B #X6X8X|.V.C.sXy *XMX%X&X<XuX7X7X7XD.jXfX6 &.@.T.=.#.=XbX2X+ * z y Z ! h.E r.S w & * % % j + > t =.x.W D ",
"JXVXDXhXpX$XMXs.6X+X6 G.1X6XMX$X X6XMXw.nXsX&.*X6X XmX7XV.%.{ c.! ^ %.a.k.%X X0XB.=.+.r 4 D.P & = ,XMX2.a : l < & > ; I E +.' R.",
"#X<XN.bXGX@.*XbX%X+X. . $ SXL ,.T nX' 3X6.rXr.rXg.OX2 # 9 cXC.Z. X7XXXrX*X6X&Xp y._ h V ~ k o * * z w.r h Z j h u.* n K { i s . ",
"zXV.cXqXKXDXbXtXbXpXo + y y r 1.` sXG.:.,X| O.*XyX*.t.t y *.B A H.6 O : : i I 3X{ p h d W - , : j 3.dXi G b j jXfXP ;.&XP.) >.kX",
"v.N ~ nXbXpX>XxXg.* = g f `.s.U.GXL.R.Q Z :.pX%.U.;Xu.l ;.N v.[ f uX, t y t '.R i { 5.{.R.nX< y t J.-.n.%.B ` J #XY n.T.E L >XU.",
"Q xXQ uXF.Q zXi.v.* , h L zXN.6X Xo.o.i KXBX( N.h.c.O 6 U i 8Xq K 4.6 y 0 d ' H i N R c.M.z.%.< r..Xg.J ~ %.%.:XzXnXV bXqXc.6 h."
};
